<svg xmlns="http://www.w3.org/2000/svg" xmlns:xlink="http://www.w3.org/1999/xlink" width="500" zoomAndPan="magnify" viewBox="0 0 375 374.999991" height="500" preserveAspectRatio="xMidYMid meet" version="1.2"><defs><clipPath id="f76acf361e"><path d="M 53.46875 26.792969 L 321.21875 26.792969 L 321.21875 294.542969 L 53.46875 294.542969 Z M 53.46875 26.792969 "/></clipPath><clipPath id="aaadd804d6"><path d="M 187.34375 26.792969 C 113.40625 26.792969 53.46875 86.730469 53.46875 160.667969 C 53.46875 234.601562 113.40625 294.542969 187.34375 294.542969 C 261.28125 294.542969 321.21875 234.601562 321.21875 160.667969 C 321.21875 86.730469 261.28125 26.792969 187.34375 26.792969 Z M 187.34375 26.792969 "/></clipPath><clipPath id="5a40a18914"><path d="M 44 65.269531 L 331 65.269531 L 331 315.742188 L 44 315.742188 Z M 44 65.269531 "/></clipPath><clipPath id="6c3ded91ef"><path d="M 193.105469 68.996094 L 329.738281 305.539062 C 330.898438 307.550781 330.898438 310.023438 329.738281 312.035156 C 328.578125 314.042969 326.433594 315.28125 324.113281 315.28125 L 50.84375 315.28125 C 48.523438 315.28125 46.378906 314.042969 45.21875 312.035156 C 44.0625 310.023438 44.0625 307.550781 45.222656 305.539062 L 181.851562 68.996094 C 183.015625 66.988281 185.160156 65.75 187.480469 65.75 C 189.800781 65.75 191.945312 66.988281 193.105469 68.996094 Z M 193.105469 68.996094 "/></clipPath><clipPath id="e72d859272"><path d="M 44.234375 65 L 330.453125 65 L 330.453125 315.757812 L 44.234375 315.757812 Z M 44.234375 65 "/></clipPath><clipPath id="70d2d12b76"><path d="M 192.964844 68.988281 L 329.453125 305.277344 C 330.609375 307.285156 330.609375 309.757812 329.453125 311.765625 C 328.292969 313.769531 326.152344 315.007812 323.835938 315.007812 L 50.855469 315.007812 C 48.539062 315.007812 46.398438 313.769531 45.238281 311.765625 C 44.078125 309.757812 44.082031 307.285156 45.238281 305.277344 L 181.726562 68.988281 C 182.886719 66.980469 185.027344 65.742188 187.34375 65.742188 C 189.664062 65.742188 191.804688 66.980469 192.964844 68.988281 Z M 192.964844 68.988281 "/></clipPath><clipPath id="d3d6f23655"><path d="M 55.910156 267 L 244.078125 267 L 244.078125 315.207031 L 55.910156 315.207031 Z M 55.910156 267 "/></clipPath><clipPath id="e2014d8956"><path d="M 282 245.929688 L 292 245.929688 L 292 259 L 282 259 Z M 282 245.929688 "/></clipPath><clipPath id="dc80e35e7a"><path d="M 206.324219 266 L 315.535156 266 L 315.535156 314.179688 L 206.324219 314.179688 Z M 206.324219 266 "/></clipPath></defs><g id="e024e536f9"><rect x="0" width="375" y="0" height="374.999991" style="fill:#ffffff;fill-opacity:1;stroke:none;"/><rect x="0" width="375" y="0" height="374.999991" style="fill:#ffffff;fill-opacity:1;stroke:none;"/><g clip-rule="nonzero" clip-path="url(#f76acf361e)"><g clip-rule="nonzero" clip-path="url(#aaadd804d6)"><path style="fill:none;stroke-width:74;stroke-linecap:butt;stroke-linejoin:miter;stroke:#000000;stroke-opacity:1;stroke-miterlimit:4;" d="M 178.702208 0.00252066 C 80.006687 0.00252066 -0.000924503 80.010132 -0.000924503 178.705654 C -0.000924503 277.39596 80.006687 357.408786 178.702208 357.408786 C 277.397729 357.408786 357.405341 277.39596 357.405341 178.705654 C 357.405341 80.010132 277.397729 0.00252066 178.702208 0.00252066 Z M 178.702208 0.00252066 " transform="matrix(0.749147,0,0,0.749147,53.469443,26.79108)"/></g></g><g clip-rule="nonzero" clip-path="url(#5a40a18914)"><g clip-rule="nonzero" clip-path="url(#6c3ded91ef)"><path style=" stroke:none;fill-rule:nonzero;fill:#fc4c00;fill-opacity:1;" d="M 39.59375 59.257812 L 335.15625 59.257812 L 335.15625 315.742188 L 39.59375 315.742188 Z M 39.59375 59.257812 "/></g></g><g clip-rule="nonzero" clip-path="url(#e72d859272)"><g clip-rule="nonzero" clip-path="url(#70d2d12b76)"><path style="fill:none;stroke-width:34;stroke-linecap:butt;stroke-linejoin:miter;stroke:#000000;stroke-opacity:1;stroke-miterlimit:4;" d="M 204.67154 12.988668 L 386.843562 328.365605 C 388.386818 331.045449 388.386818 334.345723 386.843562 337.025567 C 385.295092 339.700197 382.437982 341.352941 379.346256 341.352941 L 14.997 341.352941 C 11.905273 341.352941 9.048164 339.700197 7.499694 337.025567 C 5.951224 334.345723 5.956437 331.045449 7.499694 328.365605 L 189.671715 12.988668 C 191.220185 10.308824 194.077294 8.65608 197.169021 8.65608 C 200.265961 8.65608 203.12307 10.308824 204.67154 12.988668 Z M 204.67154 12.988668 " transform="matrix(0.749227,0,0,0.749227,39.619305,59.256815)"/></g></g><path style=" stroke:none;fill-rule:nonzero;fill:#000000;fill-opacity:1;" d="M 196.960938 273.679688 L 186.496094 266.390625 L 182.976562 273.28125 Z M 196.960938 273.679688 "/><path style=" stroke:none;fill-rule:nonzero;fill:#000000;fill-opacity:1;" d="M 214.605469 255.355469 L 221.59375 249.992188 L 223.921875 255.355469 L 214.605469 262.230469 Z M 214.605469 255.355469 "/><path style=" stroke:none;fill-rule:nonzero;fill:#000000;fill-opacity:1;" d="M 203.546875 268.929688 L 205.648438 261.660156 L 209.976562 264.175781 L 207.03125 273.679688 Z M 203.546875 268.929688 "/><path style=" stroke:none;fill-rule:nonzero;fill:#000000;fill-opacity:1;" d="M 104.496094 283.066406 L 94.03125 275.777344 L 90.515625 282.671875 Z M 104.496094 283.066406 "/><path style=" stroke:none;fill-rule:nonzero;fill:#000000;fill-opacity:1;" d="M 79.449219 252.375 L 86.433594 247.015625 L 88.761719 252.375 L 79.449219 259.25 Z M 79.449219 252.375 "/><path style=" stroke:none;fill-rule:nonzero;fill:#000000;fill-opacity:1;" d="M 94.285156 265.652344 L 96.394531 258.382812 L 100.71875 260.894531 L 97.773438 270.398438 Z M 94.285156 265.652344 "/><g clip-rule="nonzero" clip-path="url(#d3d6f23655)"><path style=" stroke:none;fill-rule:nonzero;fill:#000000;fill-opacity:1;" d="M 244.148438 315.152344 L 241.78125 293.785156 L 229.953125 267.671875 L 215.292969 267.671875 L 210.089844 283.816406 L 192.113281 281.441406 L 182.175781 291.414062 L 164.675781 301.386719 L 164.675781 308.507812 L 155.6875 299.484375 L 170.824219 282.390625 L 169.878906 276.691406 C 169.878906 276.691406 157.105469 276.691406 155.6875 276.691406 C 154.265625 276.691406 136.289062 282.390625 136.289062 282.390625 L 129.667969 305.65625 L 129.667969 296.160156 L 123.519531 284.765625 L 106.964844 291.414062 L 95.136719 291.414062 L 78.582031 267.671875 L 64.863281 272.421875 L 67.230469 284.765625 L 55.878906 299.011719 L 67.230469 315.15625 L 244.148438 315.15625 Z M 244.148438 315.152344 "/></g><path style=" stroke:none;fill-rule:nonzero;fill:#000000;fill-opacity:1;" d="M 266.949219 282.039062 L 277.414062 274.75 L 280.929688 281.644531 Z M 266.949219 282.039062 "/><g clip-rule="nonzero" clip-path="url(#e2014d8956)"><path style=" stroke:none;fill-rule:nonzero;fill:#000000;fill-opacity:1;" d="M 291.996094 251.351562 L 285.011719 245.988281 L 282.683594 251.351562 L 291.996094 258.226562 Z M 291.996094 251.351562 "/></g><path style=" stroke:none;fill-rule:nonzero;fill:#000000;fill-opacity:1;" d="M 277.160156 264.628906 L 275.050781 257.359375 L 270.726562 259.867188 L 273.675781 269.375 Z M 277.160156 264.628906 "/><g clip-rule="nonzero" clip-path="url(#dc80e35e7a)"><path style=" stroke:none;fill-rule:nonzero;fill:#000000;fill-opacity:1;" d="M 127.296875 314.125 L 129.664062 292.757812 L 141.492188 266.648438 L 156.15625 266.648438 L 161.359375 282.789062 L 179.332031 280.414062 L 189.269531 290.386719 L 206.769531 300.359375 L 206.769531 307.480469 L 215.757812 298.457031 L 200.621094 281.363281 L 201.566406 275.664062 C 201.566406 275.664062 214.339844 275.664062 215.757812 275.664062 C 217.179688 275.664062 235.15625 281.363281 235.15625 281.363281 L 241.777344 304.628906 L 241.777344 295.132812 L 247.929688 283.738281 L 264.484375 290.386719 L 276.308594 290.386719 L 292.863281 266.648438 L 306.582031 271.398438 L 304.214844 283.738281 L 315.566406 297.984375 L 304.214844 314.128906 L 127.296875 314.128906 Z M 127.296875 314.125 "/></g><g style="fill:#ffffff;fill-opacity:1;"><g transform="translate(71.087554, 160.758455)"><path style="stroke:none" d="M -3.3125 -9.75 L -3.859375 -4.265625 L 0.265625 -2.578125 L 0.046875 -0.484375 L -15.671875 -7.34375 L -15.5 -9.09375 L 1.28125 -12.71875 L 1.0625 -10.625 Z M -5.5625 -4.984375 L -5.109375 -9.40625 L -12.734375 -7.921875 Z M -5.5625 -4.984375 "/></g></g><g style="fill:#ffffff;fill-opacity:1;"><g transform="translate(72.450853, 148.153952)"><path style="stroke:none" d="M 0.4375 -2.3125 L -9.921875 -4.234375 L -10.21875 -2.6875 L -11.796875 -2.984375 L -11.5 -4.53125 L -12.859375 -4.78125 C -14.078125 -5.03125 -14.972656 -5.515625 -15.546875 -6.234375 C -16.117188 -6.953125 -16.304688 -7.851562 -16.109375 -8.9375 C -16.035156 -9.320312 -15.894531 -9.695312 -15.6875 -10.0625 L -14.0625 -9.671875 C -14.175781 -9.398438 -14.265625 -9.109375 -14.328125 -8.796875 C -14.523438 -7.679688 -13.835938 -6.976562 -12.265625 -6.6875 L -11.140625 -6.484375 L -10.765625 -8.53125 L -9.1875 -8.234375 L -9.5625 -6.1875 L 0.796875 -4.265625 Z M 0.4375 -2.3125 "/></g></g><g style="fill:#ffffff;fill-opacity:1;"><g transform="translate(73.706511, 141.38844)"><path style="stroke:none" d="M -13.671875 -7.546875 L -10.828125 -6.84375 L -10.390625 -8.625 L -8.828125 -8.234375 L -9.265625 -6.453125 L -1.9375 -4.671875 C -1.476562 -4.554688 -1.109375 -4.546875 -0.828125 -4.640625 C -0.554688 -4.742188 -0.375 -4.984375 -0.28125 -5.359375 C -0.21875 -5.609375 -0.203125 -5.875 -0.234375 -6.15625 L 1.40625 -5.734375 C 1.445312 -5.253906 1.410156 -4.789062 1.296875 -4.34375 C 1.109375 -3.582031 0.691406 -3.066406 0.046875 -2.796875 C -0.585938 -2.523438 -1.40625 -2.515625 -2.40625 -2.765625 L -9.734375 -4.546875 L -10.171875 -2.765625 L -11.734375 -3.15625 L -11.296875 -4.9375 L -14.140625 -5.640625 Z M -13.671875 -7.546875 "/></g></g><g style="fill:#ffffff;fill-opacity:1;"><g transform="translate(75.124911, 135.236026)"><path style="stroke:none" d="M 1.984375 -5.484375 C 1.523438 -4.046875 0.742188 -3.078125 -0.359375 -2.578125 C -1.460938 -2.085938 -2.84375 -2.101562 -4.5 -2.625 L -5.90625 -3.078125 C -7.625 -3.628906 -8.851562 -4.4375 -9.59375 -5.5 C -10.332031 -6.570312 -10.484375 -7.78125 -10.046875 -9.125 C -9.609375 -10.476562 -8.847656 -11.347656 -7.765625 -11.734375 C -6.691406 -12.117188 -5.242188 -12.03125 -3.421875 -11.46875 L -2.171875 -11.0625 L -4.265625 -4.609375 L -4 -4.53125 C -2.757812 -4.125 -1.78125 -4.0625 -1.0625 -4.34375 C -0.351562 -4.632812 0.144531 -5.222656 0.4375 -6.109375 C 0.613281 -6.660156 0.664062 -7.179688 0.59375 -7.671875 C 0.519531 -8.160156 0.3125 -8.660156 -0.03125 -9.171875 L 1.46875 -9.765625 C 2.351562 -8.585938 2.523438 -7.160156 1.984375 -5.484375 Z M -8.421875 -8.59375 C -8.671875 -7.8125 -8.585938 -7.144531 -8.171875 -6.59375 C -7.765625 -6.039062 -7 -5.554688 -5.875 -5.140625 L -4.40625 -9.703125 L -4.671875 -9.78125 C -5.785156 -10.082031 -6.628906 -10.132812 -7.203125 -9.9375 C -7.785156 -9.738281 -8.191406 -9.289062 -8.421875 -8.59375 Z M -8.421875 -8.59375 "/></g></g><g style="fill:#ffffff;fill-opacity:1;"><g transform="translate(78.322683, 125.473921)"><path style="stroke:none" d="M -7.078125 -9.875 C -7.242188 -9.632812 -7.390625 -9.363281 -7.515625 -9.0625 C -7.890625 -8.125 -7.640625 -7.257812 -6.765625 -6.46875 L 1.296875 -3.21875 L 0.5625 -1.375 L -10.6875 -5.921875 L -9.96875 -7.703125 L -8.828125 -7.265625 C -9.523438 -8.117188 -9.6875 -9 -9.3125 -9.90625 C -9.195312 -10.195312 -9.054688 -10.421875 -8.890625 -10.578125 Z M -7.078125 -9.875 "/></g></g><g style="fill:#ffffff;fill-opacity:1;"><g transform="translate(80.814836, 119.315605)"><path style="stroke:none" d="M -3.359375 -7.234375 L -5.3125 -3.046875 L -6.84375 -3.765625 L -4.890625 -7.953125 Z M -3.359375 -7.234375 "/></g></g><g style="fill:#ffffff;fill-opacity:1;"><g transform="translate(82.918403, 114.51522)"><path style="stroke:none" d="M -1.96875 -12.046875 L -4.765625 -7 L 0.296875 -4.203125 L 3.546875 -10.09375 L 5.09375 -9.234375 L 0.859375 -1.546875 L -13.4375 -9.4375 L -9.25 -17.03125 L -7.703125 -16.1875 L -10.90625 -10.390625 L -6.3125 -7.84375 L -3.515625 -12.890625 Z M -1.96875 -12.046875 "/></g></g><g style="fill:#ffffff;fill-opacity:1;"><g transform="translate(88.126984, 105.051808)"><path style="stroke:none" d="M 4.34375 -6.40625 C 4.050781 -6.445312 3.632812 -6.625 3.09375 -6.9375 C 3.5625 -5.769531 3.488281 -4.734375 2.875 -3.828125 C 2.25 -2.921875 1.507812 -2.382812 0.65625 -2.21875 C -0.195312 -2.050781 -1.085938 -2.285156 -2.015625 -2.921875 C -3.035156 -3.609375 -3.609375 -4.5 -3.734375 -5.59375 C -3.867188 -6.695312 -3.535156 -7.859375 -2.734375 -9.078125 L -1.921875 -10.28125 L -2.984375 -11 C -3.585938 -11.414062 -4.101562 -11.578125 -4.53125 -11.484375 C -4.96875 -11.390625 -5.367188 -11.070312 -5.734375 -10.53125 C -6.066406 -10.03125 -6.191406 -9.523438 -6.109375 -9.015625 C -6.023438 -8.515625 -5.753906 -8.109375 -5.296875 -7.796875 L -6.421875 -6.15625 C -6.941406 -6.507812 -7.328125 -6.992188 -7.578125 -7.609375 C -7.835938 -8.222656 -7.929688 -8.875 -7.859375 -9.5625 C -7.785156 -10.257812 -7.535156 -10.921875 -7.109375 -11.546875 C -6.398438 -12.585938 -5.609375 -13.203125 -4.734375 -13.390625 C -3.867188 -13.578125 -2.941406 -13.34375 -1.953125 -12.6875 L 3.125 -9.25 C 3.882812 -8.738281 4.628906 -8.390625 5.359375 -8.203125 L 5.5 -8.109375 Z M 1.53125 -5.09375 C 1.8125 -5.5 1.960938 -5.957031 1.984375 -6.46875 C 2.003906 -6.988281 1.90625 -7.445312 1.6875 -7.84375 L -0.703125 -9.46875 L -1.328125 -8.53125 C -1.835938 -7.738281 -2.078125 -7.003906 -2.046875 -6.328125 C -2.023438 -5.648438 -1.710938 -5.101562 -1.109375 -4.6875 C -0.535156 -4.300781 -0.046875 -4.132812 0.359375 -4.1875 C 0.773438 -4.25 1.164062 -4.550781 1.53125 -5.09375 Z M 1.53125 -5.09375 "/></g></g><g style="fill:#ffffff;fill-opacity:1;"><g transform="translate(94.074608, 96.386713)"><path style="stroke:none" d="M -4.015625 -11.453125 C -4.242188 -11.273438 -4.457031 -11.0625 -4.65625 -10.8125 C -5.28125 -10.019531 -5.28125 -9.117188 -4.65625 -8.109375 L 2.15625 -2.71875 L 0.921875 -1.171875 L -8.609375 -8.703125 L -7.421875 -10.203125 L -6.4375 -9.46875 C -6.863281 -10.488281 -6.773438 -11.378906 -6.171875 -12.140625 C -5.972656 -12.390625 -5.769531 -12.5625 -5.5625 -12.65625 Z M -4.015625 -11.453125 "/></g></g><g style="fill:#ffffff;fill-opacity:1;"><g transform="translate(98.169578, 91.194247)"><path style="stroke:none" d="M -8.578125 -13.046875 L -6.390625 -11.09375 L -5.171875 -12.46875 L -3.96875 -11.40625 L -5.1875 -10.03125 L 0.453125 -5.03125 C 0.816406 -4.71875 1.140625 -4.539062 1.421875 -4.5 C 1.710938 -4.457031 1.984375 -4.582031 2.234375 -4.875 C 2.410156 -5.0625 2.550781 -5.289062 2.65625 -5.5625 L 3.921875 -4.421875 C 3.710938 -3.984375 3.457031 -3.585938 3.15625 -3.234375 C 2.632812 -2.648438 2.03125 -2.390625 1.34375 -2.453125 C 0.65625 -2.515625 -0.0703125 -2.882812 -0.84375 -3.5625 L -6.484375 -8.5625 L -7.71875 -7.1875 L -8.921875 -8.25 L -7.6875 -9.625 L -9.875 -11.578125 Z M -8.578125 -13.046875 "/></g></g><g style="fill:#ffffff;fill-opacity:1;"><g transform="translate(102.278598, 86.411383)"><path style="stroke:none" d="M -5.125 -10.21875 C -5.269531 -11.4375 -4.921875 -12.457031 -4.078125 -13.28125 C -2.535156 -14.78125 -0.753906 -14.515625 1.265625 -12.484375 L 6.890625 -6.71875 L 5.484375 -5.34375 L -0.078125 -11.046875 C -0.742188 -11.722656 -1.332031 -12.09375 -1.84375 -12.15625 C -2.351562 -12.226562 -2.835938 -12.039062 -3.296875 -11.59375 C -3.648438 -11.25 -3.851562 -10.820312 -3.90625 -10.3125 C -3.957031 -9.800781 -3.878906 -9.273438 -3.671875 -8.734375 L 2.484375 -2.421875 L 1.0625 -1.03125 L -10.96875 -13.359375 L -9.546875 -14.75 Z M -5.125 -10.21875 "/></g></g><g style="fill:#ffffff;fill-opacity:1;"><g transform="translate(109.755607, 79.061751)"><path style="stroke:none" d="M -3.328125 -5.8125 C -4.523438 -7.28125 -5.160156 -8.601562 -5.234375 -9.78125 C -5.316406 -10.96875 -4.828125 -11.992188 -3.765625 -12.859375 C -2.847656 -13.597656 -1.847656 -13.804688 -0.765625 -13.484375 L -1.421875 -14.46875 L -0.015625 -15.609375 L 10.5625 -2.5625 L 9.015625 -1.3125 L 5.40625 -5.765625 C 5.445312 -4.691406 5.023438 -3.796875 4.140625 -3.078125 C 3.128906 -2.253906 2.050781 -1.988281 0.90625 -2.28125 C -0.238281 -2.582031 -1.394531 -3.4375 -2.5625 -4.84375 Z M -1.09375 -6.1875 C -0.238281 -5.125 0.554688 -4.46875 1.296875 -4.21875 C 2.046875 -3.976562 2.773438 -4.144531 3.484375 -4.71875 C 4.203125 -5.300781 4.476562 -6.097656 4.3125 -7.109375 L 0.21875 -12.171875 C -0.769531 -12.523438 -1.609375 -12.421875 -2.296875 -11.859375 C -3.015625 -11.285156 -3.328125 -10.609375 -3.234375 -9.828125 C -3.140625 -9.054688 -2.679688 -8.15625 -1.859375 -7.125 Z M -1.09375 -6.1875 "/></g></g><g style="fill:#ffffff;fill-opacity:1;"><g transform="translate(118.197834, 72.185744)"><path style="stroke:none" d="M 5.78125 -5.15625 C 5.71875 -4.070312 5.15625 -3.175781 4.09375 -2.46875 C 3.1875 -1.863281 2.285156 -1.71875 1.390625 -2.03125 C 0.503906 -2.351562 -0.34375 -3.117188 -1.15625 -4.328125 L -5.546875 -10.90625 L -3.90625 -12 L 0.40625 -5.546875 C 1.46875 -3.960938 2.472656 -3.484375 3.421875 -4.109375 C 4.421875 -4.785156 4.804688 -5.703125 4.578125 -6.859375 L -0.421875 -14.328125 L 1.21875 -15.421875 L 7.96875 -5.328125 L 6.421875 -4.296875 Z M 5.78125 -5.15625 "/></g></g><g style="fill:#ffffff;fill-opacity:1;"><g transform="translate(126.917589, 66.322735)"><path style="stroke:none" d="M 6.78125 -3.703125 C 6.550781 -3.867188 6.265625 -4.21875 5.921875 -4.75 C 5.804688 -3.507812 5.269531 -2.628906 4.3125 -2.109375 C 3.34375 -1.578125 2.4375 -1.429688 1.59375 -1.671875 C 0.757812 -1.910156 0.0703125 -2.523438 -0.46875 -3.515625 C -1.050781 -4.597656 -1.148438 -5.65625 -0.765625 -6.6875 C -0.378906 -7.726562 0.445312 -8.609375 1.71875 -9.328125 L 3 -10.015625 L 2.390625 -11.140625 C 2.035156 -11.785156 1.640625 -12.164062 1.203125 -12.28125 C 0.773438 -12.394531 0.273438 -12.296875 -0.296875 -11.984375 C -0.816406 -11.703125 -1.15625 -11.3125 -1.3125 -10.8125 C -1.46875 -10.320312 -1.414062 -9.832031 -1.15625 -9.34375 L -2.90625 -8.40625 C -3.207031 -8.957031 -3.328125 -9.566406 -3.265625 -10.234375 C -3.210938 -10.898438 -2.992188 -11.519531 -2.609375 -12.09375 C -2.222656 -12.675781 -1.695312 -13.148438 -1.03125 -13.515625 C 0.0703125 -14.117188 1.050781 -14.304688 1.90625 -14.078125 C 2.757812 -13.847656 3.476562 -13.21875 4.0625 -12.1875 L 7 -6.8125 C 7.457031 -5.988281 7.960938 -5.332031 8.515625 -4.84375 L 8.59375 -4.6875 Z M 3.703125 -3.828125 C 4.128906 -4.054688 4.472656 -4.394531 4.734375 -4.84375 C 4.992188 -5.289062 5.113281 -5.742188 5.09375 -6.203125 L 3.703125 -8.734375 L 2.71875 -8.203125 C 1.90625 -7.722656 1.351562 -7.175781 1.0625 -6.5625 C 0.78125 -5.945312 0.8125 -5.316406 1.15625 -4.671875 C 1.488281 -4.066406 1.851562 -3.695312 2.25 -3.5625 C 2.644531 -3.425781 3.128906 -3.515625 3.703125 -3.828125 Z M 3.703125 -3.828125 "/></g></g><g style="fill:#ffffff;fill-opacity:1;"><g transform="translate(136.063249, 61.318847)"><path style="stroke:none" d="M 1.9375 -6.890625 L 1.4375 -5.390625 L 3.1875 -1.40625 L 1.359375 -0.59375 L -5.5625 -16.375 L -3.734375 -17.1875 L 0.40625 -7.75 L 1.765625 -14.03125 L 3.953125 -15 L 2.46875 -8.796875 L 9.28125 -4.0625 L 7.171875 -3.140625 Z M 1.9375 -6.890625 "/></g></g><g style="fill:#ffffff;fill-opacity:1;"><g transform="translate(145.010007, 57.361364)"><path style="stroke:none" d="M 5.59375 -1.671875 C 4.164062 -1.179688 2.921875 -1.234375 1.859375 -1.828125 C 0.796875 -2.421875 -0.0195312 -3.539062 -0.59375 -5.1875 L -1.0625 -6.578125 C -1.644531 -8.285156 -1.722656 -9.753906 -1.296875 -10.984375 C -0.878906 -12.210938 -0.00390625 -13.050781 1.328125 -13.5 C 2.679688 -13.957031 3.832031 -13.867188 4.78125 -13.234375 C 5.738281 -12.597656 6.53125 -11.382812 7.15625 -9.59375 L 7.578125 -8.34375 L 1.15625 -6.15625 L 1.25 -5.890625 C 1.664062 -4.660156 2.203125 -3.847656 2.859375 -3.453125 C 3.515625 -3.054688 4.28125 -3.003906 5.15625 -3.296875 C 5.707031 -3.484375 6.15625 -3.75 6.5 -4.09375 C 6.84375 -4.445312 7.117188 -4.910156 7.328125 -5.484375 L 8.71875 -4.65625 C 8.300781 -3.226562 7.257812 -2.234375 5.59375 -1.671875 Z M 1.875 -11.890625 C 1.09375 -11.628906 0.601562 -11.164062 0.40625 -10.5 C 0.207031 -9.84375 0.273438 -8.941406 0.609375 -7.796875 L 5.140625 -9.328125 L 5.0625 -9.59375 C 4.644531 -10.65625 4.179688 -11.363281 3.671875 -11.71875 C 3.171875 -12.070312 2.570312 -12.128906 1.875 -11.890625 Z M 1.875 -11.890625 "/></g></g><g style="fill:#ffffff;fill-opacity:1;"><g transform="translate(154.80365, 54.114609)"><path style="stroke:none" d=""/></g></g><g style="fill:#ffffff;fill-opacity:1;"><g transform="translate(159.405848, 52.743547)"><path style="stroke:none" d="M 7.9375 -5.75 C 7.78125 -6.550781 7.441406 -7.125 6.921875 -7.46875 C 6.410156 -7.8125 5.546875 -8.070312 4.328125 -8.25 C 3.117188 -8.4375 2.171875 -8.691406 1.484375 -9.015625 C 0.804688 -9.335938 0.265625 -9.753906 -0.140625 -10.265625 C -0.546875 -10.785156 -0.820312 -11.410156 -0.96875 -12.140625 C -1.21875 -13.410156 -1 -14.535156 -0.3125 -15.515625 C 0.375 -16.503906 1.40625 -17.128906 2.78125 -17.390625 C 3.71875 -17.578125 4.59375 -17.53125 5.40625 -17.25 C 6.226562 -16.976562 6.910156 -16.503906 7.453125 -15.828125 C 7.992188 -15.160156 8.351562 -14.378906 8.53125 -13.484375 L 6.5 -13.09375 C 6.300781 -14.082031 5.910156 -14.800781 5.328125 -15.25 C 4.753906 -15.707031 4.019531 -15.847656 3.125 -15.671875 C 2.3125 -15.515625 1.722656 -15.160156 1.359375 -14.609375 C 1.003906 -14.066406 0.90625 -13.390625 1.0625 -12.578125 C 1.195312 -11.898438 1.550781 -11.378906 2.125 -11.015625 C 2.695312 -10.660156 3.523438 -10.394531 4.609375 -10.21875 C 6.285156 -10.007812 7.535156 -9.585938 8.359375 -8.953125 C 9.191406 -8.328125 9.726562 -7.398438 9.96875 -6.171875 C 10.21875 -4.867188 10 -3.742188 9.3125 -2.796875 C 8.625 -1.859375 7.554688 -1.25 6.109375 -0.96875 C 5.171875 -0.78125 4.265625 -0.8125 3.390625 -1.0625 C 2.523438 -1.320312 1.796875 -1.773438 1.203125 -2.421875 C 0.609375 -3.078125 0.21875 -3.878906 0.03125 -4.828125 L 2.046875 -5.21875 C 2.242188 -4.226562 2.671875 -3.507812 3.328125 -3.0625 C 3.984375 -2.625 4.796875 -2.5 5.765625 -2.6875 C 6.648438 -2.851562 7.269531 -3.207031 7.625 -3.75 C 7.976562 -4.300781 8.082031 -4.96875 7.9375 -5.75 Z M 7.9375 -5.75 "/></g></g><g style="fill:#ffffff;fill-opacity:1;"><g transform="translate(170.474945, 50.574592)"><path style="stroke:none" d="M 7.53125 -1.828125 C 6.957031 -0.898438 6.035156 -0.375 4.765625 -0.25 C 3.679688 -0.144531 2.820312 -0.4375 2.1875 -1.125 C 1.5625 -1.820312 1.175781 -2.898438 1.03125 -4.359375 L 0.25 -12.21875 L 2.203125 -12.421875 L 2.96875 -4.703125 C 3.15625 -2.816406 3.8125 -1.925781 4.9375 -2.03125 C 6.144531 -2.15625 6.921875 -2.773438 7.265625 -3.890625 L 6.375 -12.828125 L 8.34375 -13.03125 L 9.546875 -0.953125 L 7.6875 -0.765625 Z M 7.53125 -1.828125 "/></g></g><g style="fill:#ffffff;fill-opacity:1;"><g transform="translate(181.038766, 49.583075)"><path style="stroke:none" d="M 6.234375 -10.4375 C 5.953125 -10.488281 5.648438 -10.507812 5.328125 -10.5 C 4.316406 -10.476562 3.625 -9.90625 3.25 -8.78125 L 3.46875 -0.09375 L 1.484375 -0.03125 L 1.171875 -12.171875 L 3.09375 -12.234375 L 3.15625 -11 C 3.664062 -11.976562 4.410156 -12.476562 5.390625 -12.5 C 5.703125 -12.507812 5.960938 -12.46875 6.171875 -12.375 Z M 6.234375 -10.4375 "/></g></g><g style="fill:#ffffff;fill-opacity:1;"><g transform="translate(187.568776, 49.352302)"><path style="stroke:none" d="M 5.046875 -2.8125 L 7.734375 -11.8125 L 9.734375 -11.734375 L 5.640625 0.234375 L 4.15625 0.171875 L 1.03125 -12.109375 L 3.046875 -12.015625 Z M 5.046875 -2.8125 "/></g></g><g style="fill:#ffffff;fill-opacity:1;"><g transform="translate(196.832322, 49.705548)"><path style="stroke:none" d="M 5.75 0.953125 C 4.25 0.765625 3.148438 0.171875 2.453125 -0.828125 C 1.765625 -1.828125 1.523438 -3.1875 1.734375 -4.90625 L 1.921875 -6.375 C 2.148438 -8.164062 2.722656 -9.519531 3.640625 -10.4375 C 4.554688 -11.363281 5.710938 -11.738281 7.109375 -11.5625 C 8.523438 -11.382812 9.519531 -10.800781 10.09375 -9.8125 C 10.675781 -8.820312 10.859375 -7.378906 10.640625 -5.484375 L 10.46875 -4.171875 L 3.734375 -5.03125 L 3.703125 -4.75 C 3.535156 -3.457031 3.660156 -2.488281 4.078125 -1.84375 C 4.492188 -1.195312 5.160156 -0.816406 6.078125 -0.703125 C 6.660156 -0.628906 7.179688 -0.671875 7.640625 -0.828125 C 8.109375 -0.992188 8.566406 -1.296875 9.015625 -1.734375 L 9.875 -0.34375 C 8.875 0.738281 7.5 1.171875 5.75 0.953125 Z M 6.890625 -9.875 C 6.078125 -9.976562 5.4375 -9.769531 4.96875 -9.25 C 4.5 -8.738281 4.164062 -7.894531 3.96875 -6.71875 L 8.71875 -6.109375 L 8.75 -6.390625 C 8.84375 -7.535156 8.738281 -8.378906 8.4375 -8.921875 C 8.144531 -9.460938 7.628906 -9.78125 6.890625 -9.875 Z M 6.890625 -9.875 "/></g></g><g style="fill:#ffffff;fill-opacity:1;"><g transform="translate(207.057852, 51.081172)"><path style="stroke:none" d="M 3.5625 0.6875 L 1.609375 0.3125 L 3.921875 -11.609375 L 5.875 -11.234375 Z M 6.640625 -14.359375 C 6.578125 -14.023438 6.429688 -13.765625 6.203125 -13.578125 C 5.972656 -13.390625 5.671875 -13.332031 5.296875 -13.40625 C 4.941406 -13.46875 4.691406 -13.628906 4.546875 -13.890625 C 4.398438 -14.148438 4.359375 -14.441406 4.421875 -14.765625 C 4.484375 -15.097656 4.628906 -15.359375 4.859375 -15.546875 C 5.097656 -15.742188 5.394531 -15.804688 5.75 -15.734375 C 6.113281 -15.671875 6.367188 -15.503906 6.515625 -15.234375 C 6.660156 -14.960938 6.703125 -14.671875 6.640625 -14.359375 Z M 6.640625 -14.359375 "/></g></g><g style="fill:#ffffff;fill-opacity:1;"><g transform="translate(211.941705, 52.021599)"><path style="stroke:none" d="M 3.53125 0.84375 L 1.59375 0.375 L 5.59375 -16.390625 L 7.53125 -15.921875 Z M 3.53125 0.84375 "/></g></g><g style="fill:#ffffff;fill-opacity:1;"><g transform="translate(216.780895, 53.169855)"><path style="stroke:none" d="M 3.484375 0.984375 L 1.578125 0.453125 L 6.296875 -16.125 L 8.203125 -15.59375 Z M 3.484375 0.984375 "/></g></g><g style="fill:#ffffff;fill-opacity:1;"><g transform="translate(221.450172, 54.384173)"><path style="stroke:none" d="M 7.28125 2.59375 C 7.25 2.300781 7.316406 1.859375 7.484375 1.265625 C 6.472656 1.992188 5.453125 2.175781 4.421875 1.8125 C 3.378906 1.4375 2.671875 0.859375 2.296875 0.078125 C 1.929688 -0.703125 1.9375 -1.625 2.3125 -2.6875 C 2.726562 -3.84375 3.453125 -4.617188 4.484375 -5.015625 C 5.523438 -5.421875 6.734375 -5.390625 8.109375 -4.921875 L 9.46875 -4.4375 L 9.90625 -5.640625 C 10.15625 -6.328125 10.175781 -6.867188 9.96875 -7.265625 C 9.769531 -7.660156 9.363281 -7.96875 8.75 -8.1875 C 8.1875 -8.382812 7.671875 -8.378906 7.203125 -8.171875 C 6.734375 -7.960938 6.40625 -7.597656 6.21875 -7.078125 L 4.34375 -7.75 C 4.550781 -8.34375 4.921875 -8.84375 5.453125 -9.25 C 5.984375 -9.664062 6.59375 -9.914062 7.28125 -10 C 7.976562 -10.09375 8.6875 -10.015625 9.40625 -9.765625 C 10.582031 -9.347656 11.367188 -8.738281 11.765625 -7.9375 C 12.171875 -7.144531 12.179688 -6.1875 11.796875 -5.0625 L 9.734375 0.703125 C 9.429688 1.585938 9.28125 2.398438 9.28125 3.140625 L 9.21875 3.296875 Z M 5.3125 0.21875 C 5.769531 0.382812 6.25 0.414062 6.75 0.3125 C 7.257812 0.207031 7.679688 -0.00390625 8.015625 -0.328125 L 8.984375 -3.046875 L 7.921875 -3.421875 C 7.035156 -3.710938 6.265625 -3.757812 5.609375 -3.5625 C 4.960938 -3.375 4.515625 -2.9375 4.265625 -2.25 C 4.035156 -1.601562 4 -1.082031 4.15625 -0.6875 C 4.3125 -0.300781 4.695312 0 5.3125 0.21875 Z M 5.3125 0.21875 "/></g></g><g style="fill:#ffffff;fill-opacity:1;"><g transform="translate(231.260474, 57.855779)"><path style="stroke:none" d="M 8.140625 -9.609375 L 7.640625 -8.40625 C 8.765625 -9.007812 9.867188 -9.054688 10.953125 -8.546875 C 12.898438 -7.648438 13.285156 -5.894531 12.109375 -3.28125 L 8.734375 4.03125 L 6.953125 3.21875 L 10.296875 -4.015625 C 10.691406 -4.878906 10.828125 -5.554688 10.703125 -6.046875 C 10.578125 -6.546875 10.226562 -6.929688 9.65625 -7.203125 C 9.195312 -7.410156 8.722656 -7.445312 8.234375 -7.3125 C 7.742188 -7.175781 7.285156 -6.921875 6.859375 -6.546875 L 3.15625 1.453125 L 1.34375 0.625 L 6.4375 -10.390625 Z M 8.140625 -9.609375 "/></g></g><g style="fill:#ffffff;fill-opacity:1;"><g transform="translate(240.823818, 62.259013)"><path style="stroke:none" d="M 5.6875 1.5625 C 6.25 1.882812 6.800781 1.96875 7.34375 1.8125 C 7.894531 1.664062 8.375 1.269531 8.78125 0.625 L 10.40625 1.5625 C 9.78125 2.550781 8.9375 3.179688 7.875 3.453125 C 6.820312 3.734375 5.8125 3.59375 4.84375 3.03125 C 3.53125 2.28125 2.765625 1.296875 2.546875 0.078125 C 2.335938 -1.128906 2.703125 -2.546875 3.640625 -4.171875 L 4.296875 -5.328125 C 5.210938 -6.910156 6.25 -7.914062 7.40625 -8.34375 C 8.5625 -8.78125 9.789062 -8.628906 11.09375 -7.890625 C 12.164062 -7.273438 12.820312 -6.441406 13.0625 -5.390625 C 13.300781 -4.347656 13.101562 -3.226562 12.46875 -2.03125 L 10.84375 -2.96875 C 11.25 -3.769531 11.394531 -4.457031 11.28125 -5.03125 C 11.175781 -5.601562 10.832031 -6.0625 10.25 -6.40625 C 9.476562 -6.84375 8.757812 -6.914062 8.09375 -6.625 C 7.4375 -6.34375 6.773438 -5.628906 6.109375 -4.484375 L 5.34375 -3.140625 C 4.625 -1.898438 4.300781 -0.921875 4.375 -0.203125 C 4.445312 0.515625 4.882812 1.101562 5.6875 1.5625 Z M 5.6875 1.5625 "/></g></g><g style="fill:#ffffff;fill-opacity:1;"><g transform="translate(249.540081, 67.228635)"><path style="stroke:none" d="M 4.65625 3.5 C 3.414062 2.632812 2.71875 1.597656 2.5625 0.390625 C 2.414062 -0.804688 2.832031 -2.117188 3.8125 -3.546875 L 4.65625 -4.75 C 5.6875 -6.238281 6.820312 -7.175781 8.0625 -7.5625 C 9.300781 -7.957031 10.5 -7.753906 11.65625 -6.953125 C 12.820312 -6.128906 13.429688 -5.144531 13.484375 -4 C 13.535156 -2.863281 13.03125 -1.507812 11.96875 0.0625 L 11.21875 1.140625 L 5.65625 -2.71875 L 5.5 -2.5 C 4.75 -1.425781 4.40625 -0.507812 4.46875 0.25 C 4.539062 1.007812 4.957031 1.65625 5.71875 2.1875 C 6.195312 2.519531 6.679688 2.722656 7.171875 2.796875 C 7.660156 2.867188 8.195312 2.820312 8.78125 2.65625 L 8.90625 4.25 C 7.519531 4.757812 6.101562 4.507812 4.65625 3.5 Z M 10.6875 -5.5625 C 10.007812 -6.03125 9.347656 -6.144531 8.703125 -5.90625 C 8.054688 -5.664062 7.367188 -5.070312 6.640625 -4.125 L 10.5625 -1.390625 L 10.71875 -1.625 C 11.332031 -2.59375 11.628906 -3.382812 11.609375 -4 C 11.597656 -4.613281 11.289062 -5.132812 10.6875 -5.5625 Z M 10.6875 -5.5625 "/></g></g><g style="fill:#ffffff;fill-opacity:1;"><g transform="translate(257.96505, 73.185645)"><path style="stroke:none" d=""/></g></g><g style="fill:#ffffff;fill-opacity:1;"><g transform="translate(261.800045, 76.063787)"><path style="stroke:none" d="M 9.40625 -0.3125 L 7.28125 -2.265625 L 2.8125 2.59375 L 1.296875 1.203125 L 12.359375 -10.8125 L 15.734375 -7.71875 C 16.898438 -6.632812 17.503906 -5.503906 17.546875 -4.328125 C 17.585938 -3.160156 17.066406 -1.988281 15.984375 -0.8125 C 15.296875 -0.0625 14.535156 0.429688 13.703125 0.671875 C 12.867188 0.921875 12.019531 0.910156 11.15625 0.640625 L 8.78125 7.890625 L 8.6875 8 L 7.0625 6.5 Z M 8.46875 -3.5625 L 10.296875 -1.875 C 10.929688 -1.289062 11.625 -1.03125 12.375 -1.09375 C 13.132812 -1.15625 13.828125 -1.53125 14.453125 -2.21875 C 15.867188 -3.757812 15.882812 -5.171875 14.5 -6.453125 L 12.671875 -8.125 Z M 8.46875 -3.5625 "/></g></g><g style="fill:#ffffff;fill-opacity:1;"><g transform="translate(270.312311, 83.901582)"><path style="stroke:none" d="M 3.75 4.46875 C 2.738281 3.34375 2.289062 2.175781 2.40625 0.96875 C 2.53125 -0.226562 3.238281 -1.410156 4.53125 -2.578125 L 5.625 -3.5625 C 6.96875 -4.78125 8.285156 -5.4375 9.578125 -5.53125 C 10.867188 -5.632812 11.988281 -5.164062 12.9375 -4.125 C 13.882812 -3.0625 14.253906 -1.96875 14.046875 -0.84375 C 13.835938 0.28125 13.03125 1.488281 11.625 2.78125 L 10.65625 3.671875 L 6.125 -1.375 L 5.921875 -1.1875 C 4.953125 -0.320312 4.410156 0.488281 4.296875 1.25 C 4.191406 2.007812 4.445312 2.734375 5.0625 3.421875 C 5.457031 3.859375 5.882812 4.164062 6.34375 4.34375 C 6.800781 4.53125 7.335938 4.601562 7.953125 4.5625 L 7.71875 6.171875 C 6.25 6.347656 4.925781 5.78125 3.75 4.46875 Z M 11.671875 -2.984375 C 11.117188 -3.597656 10.5 -3.859375 9.8125 -3.765625 C 9.125 -3.679688 8.320312 -3.257812 7.40625 -2.5 L 10.59375 1.046875 L 10.796875 0.859375 C 11.617188 0.0546875 12.09375 -0.644531 12.21875 -1.25 C 12.34375 -1.851562 12.160156 -2.429688 11.671875 -2.984375 Z M 11.671875 -2.984375 "/></g></g><g style="fill:#ffffff;fill-opacity:1;"><g transform="translate(277.141994, 91.457073)"><path style="stroke:none" d="M 6.9375 4 C 7.269531 3.738281 7.460938 3.390625 7.515625 2.953125 C 7.566406 2.523438 7.476562 1.816406 7.25 0.828125 C 6.957031 -0.285156 6.804688 -1.113281 6.796875 -1.65625 C 6.785156 -2.195312 6.875 -2.671875 7.0625 -3.078125 C 7.25 -3.492188 7.5625 -3.867188 8 -4.203125 C 8.78125 -4.796875 9.648438 -5 10.609375 -4.8125 C 11.578125 -4.632812 12.394531 -4.101562 13.0625 -3.21875 C 13.78125 -2.269531 14.078125 -1.300781 13.953125 -0.3125 C 13.835938 0.664062 13.347656 1.476562 12.484375 2.125 L 11.296875 0.5625 C 11.734375 0.226562 11.992188 -0.195312 12.078125 -0.71875 C 12.171875 -1.238281 12.046875 -1.726562 11.703125 -2.1875 C 11.347656 -2.644531 10.953125 -2.914062 10.515625 -3 C 10.078125 -3.09375 9.65625 -2.988281 9.25 -2.6875 C 8.925781 -2.4375 8.738281 -2.140625 8.6875 -1.796875 C 8.632812 -1.453125 8.726562 -0.785156 8.96875 0.203125 C 9.394531 1.710938 9.546875 2.847656 9.421875 3.609375 C 9.304688 4.367188 8.910156 5.003906 8.234375 5.515625 C 7.390625 6.140625 6.5 6.351562 5.5625 6.15625 C 4.625 5.957031 3.789062 5.375 3.0625 4.40625 C 2.300781 3.394531 1.972656 2.359375 2.078125 1.296875 C 2.179688 0.242188 2.675781 -0.617188 3.5625 -1.296875 L 4.765625 0.296875 C 4.234375 0.710938 3.929688 1.191406 3.859375 1.734375 C 3.796875 2.273438 3.976562 2.828125 4.40625 3.390625 C 4.800781 3.910156 5.21875 4.21875 5.65625 4.3125 C 6.101562 4.40625 6.53125 4.300781 6.9375 4 Z M 6.9375 4 "/></g></g><g style="fill:#ffffff;fill-opacity:1;"><g transform="translate(283.133244, 99.331578)"><path style="stroke:none" d="M 4.28125 4.046875 C 4.632812 4.597656 5.085938 4.929688 5.640625 5.046875 C 6.191406 5.171875 6.796875 5.039062 7.453125 4.65625 L 8.453125 6.25 C 7.453125 6.832031 6.414062 6.992188 5.34375 6.734375 C 4.28125 6.484375 3.445312 5.882812 2.84375 4.9375 C 2.039062 3.65625 1.828125 2.429688 2.203125 1.265625 C 2.585938 0.0976562 3.578125 -0.984375 5.171875 -1.984375 L 6.296875 -2.6875 C 7.847656 -3.664062 9.234375 -4.070312 10.453125 -3.90625 C 11.671875 -3.75 12.679688 -3.035156 13.484375 -1.765625 C 14.140625 -0.710938 14.332031 0.328125 14.0625 1.359375 C 13.789062 2.390625 13.09375 3.285156 11.96875 4.046875 L 10.96875 2.453125 C 11.695312 1.953125 12.148438 1.414062 12.328125 0.84375 C 12.503906 0.28125 12.410156 -0.285156 12.046875 -0.859375 C 11.578125 -1.609375 10.984375 -2.007812 10.265625 -2.0625 C 9.546875 -2.113281 8.625 -1.796875 7.5 -1.109375 L 6.1875 -0.28125 C 4.96875 0.488281 4.222656 1.207031 3.953125 1.875 C 3.691406 2.539062 3.800781 3.265625 4.28125 4.046875 Z M 4.28125 4.046875 "/></g></g><g style="fill:#ffffff;fill-opacity:1;"><g transform="translate(288.502998, 107.798795)"><path style="stroke:none" d="M 4.453125 6.34375 C 3.390625 6.144531 2.570312 5.476562 2 4.34375 C 1.5 3.375 1.453125 2.46875 1.859375 1.625 C 2.273438 0.78125 3.128906 0.0234375 4.421875 -0.640625 L 11.453125 -4.234375 L 12.359375 -2.484375 L 5.453125 1.046875 C 3.765625 1.910156 3.179688 2.847656 3.703125 3.859375 C 4.242188 4.929688 5.101562 5.421875 6.28125 5.328125 L 14.265625 1.234375 L 15.171875 3 L 4.375 8.53125 L 3.515625 6.875 Z M 4.453125 6.34375 "/></g></g><g style="fill:#ffffff;fill-opacity:1;"><g transform="translate(293.317453, 117.142081)"><path style="stroke:none" d="M 1.984375 5.484375 C 1.421875 4.078125 1.398438 2.828125 1.921875 1.734375 C 2.453125 0.648438 3.523438 -0.21875 5.140625 -0.875 L 6.5 -1.4375 C 8.1875 -2.113281 9.648438 -2.273438 10.890625 -1.921875 C 12.140625 -1.578125 13.023438 -0.753906 13.546875 0.546875 C 14.085938 1.867188 14.066406 3.019531 13.484375 4 C 12.910156 4.988281 11.742188 5.851562 9.984375 6.59375 L 8.765625 7.09375 L 6.21875 0.8125 L 5.96875 0.90625 C 4.757812 1.394531 3.972656 1.976562 3.609375 2.65625 C 3.242188 3.332031 3.238281 4.097656 3.59375 4.953125 C 3.8125 5.492188 4.101562 5.925781 4.46875 6.25 C 4.84375 6.582031 5.320312 6.835938 5.90625 7.015625 L 5.140625 8.4375 C 3.691406 8.09375 2.640625 7.109375 1.984375 5.484375 Z M 11.96875 1.1875 C 11.664062 0.425781 11.175781 -0.03125 10.5 -0.1875 C 9.832031 -0.34375 8.929688 -0.21875 7.796875 0.1875 L 9.59375 4.609375 L 9.859375 4.5 C 10.898438 4.03125 11.582031 3.53125 11.90625 3 C 12.226562 2.476562 12.25 1.875 11.96875 1.1875 Z M 11.96875 1.1875 "/></g></g><g style="fill:#ffffff;fill-opacity:1;"><g transform="translate(297.117785, 126.736652)"><path style="stroke:none" d=""/></g></g><g style="fill:#ffffff;fill-opacity:1;"><g transform="translate(298.770125, 131.217791)"><path style="stroke:none" d="M 7.953125 10.375 C 6.222656 10.707031 4.800781 10.550781 3.6875 9.90625 C 2.570312 9.269531 1.816406 8.160156 1.421875 6.578125 C 1.023438 4.992188 1.3125 3.582031 2.28125 2.34375 C 3.257812 1.101562 4.78125 0.226562 6.84375 -0.28125 L 9.71875 -1 C 11.78125 -1.519531 13.523438 -1.445312 14.953125 -0.78125 C 16.390625 -0.113281 17.316406 1.050781 17.734375 2.71875 C 18.117188 4.238281 17.957031 5.53125 17.25 6.59375 C 16.550781 7.664062 15.359375 8.453125 13.671875 8.953125 L 13.15625 6.9375 C 14.425781 6.53125 15.28125 6.023438 15.71875 5.421875 C 16.15625 4.828125 16.257812 4.066406 16.03125 3.140625 C 15.757812 2.054688 15.128906 1.328125 14.140625 0.953125 C 13.148438 0.585938 11.835938 0.609375 10.203125 1.015625 L 7.296875 1.75 C 5.691406 2.144531 4.53125 2.71875 3.8125 3.46875 C 3.09375 4.226562 2.863281 5.125 3.125 6.15625 C 3.382812 7.195312 3.828125 7.878906 4.453125 8.203125 C 5.085938 8.523438 6.082031 8.578125 7.4375 8.359375 Z M 7.953125 10.375 "/></g></g><g style="fill:#ffffff;fill-opacity:1;"><g transform="translate(301.758232, 143.224436)"><path style="stroke:none" d="M 1.140625 7.65625 C 1.378906 7.488281 1.800781 7.332031 2.40625 7.1875 C 1.289062 6.65625 0.648438 5.847656 0.484375 4.765625 C 0.316406 3.671875 0.492188 2.773438 1.015625 2.078125 C 1.535156 1.378906 2.351562 0.945312 3.46875 0.78125 C 4.675781 0.59375 5.703125 0.859375 6.546875 1.578125 C 7.390625 2.304688 7.925781 3.394531 8.15625 4.84375 L 8.375 6.28125 L 9.640625 6.09375 C 10.359375 5.976562 10.847656 5.738281 11.109375 5.375 C 11.367188 5.007812 11.453125 4.503906 11.359375 3.859375 C 11.265625 3.273438 11.015625 2.820312 10.609375 2.5 C 10.203125 2.1875 9.726562 2.066406 9.1875 2.140625 L 8.890625 0.171875 C 9.503906 0.0859375 10.113281 0.179688 10.71875 0.453125 C 11.332031 0.734375 11.84375 1.15625 12.25 1.71875 C 12.664062 2.289062 12.929688 2.953125 13.046875 3.703125 C 13.222656 4.941406 13.054688 5.921875 12.546875 6.640625 C 12.035156 7.367188 11.195312 7.828125 10.03125 8.015625 L 3.96875 8.90625 C 3.050781 9.0625 2.265625 9.3125 1.609375 9.65625 L 1.4375 9.6875 Z M 2.3125 4.78125 C 2.382812 5.269531 2.582031 5.710938 2.90625 6.109375 C 3.238281 6.503906 3.625 6.773438 4.0625 6.921875 L 6.921875 6.484375 L 6.75 5.375 C 6.59375 4.457031 6.273438 3.753906 5.796875 3.265625 C 5.316406 2.785156 4.71875 2.601562 4 2.71875 C 3.3125 2.8125 2.832031 3.015625 2.5625 3.328125 C 2.300781 3.648438 2.21875 4.132812 2.3125 4.78125 Z M 2.3125 4.78125 "/></g></g><g style="fill:#ffffff;fill-opacity:1;"><g transform="translate(303.255616, 153.624923)"><path style="stroke:none" d="M 10.71875 5.71875 C 10.757812 5.4375 10.769531 5.132812 10.75 4.8125 C 10.664062 3.800781 10.054688 3.132812 8.921875 2.8125 L 0.265625 3.453125 L 0.109375 1.484375 L 12.21875 0.578125 L 12.359375 2.484375 L 11.125 2.609375 C 12.132812 3.066406 12.675781 3.785156 12.75 4.765625 C 12.769531 5.078125 12.738281 5.34375 12.65625 5.5625 Z M 10.71875 5.71875 "/></g></g><g style="fill:#000000;fill-opacity:0.302;"><g transform="translate(115.99915, 239.012268)"><path style="stroke:none" d="M 14.53125 -4 L 5.84375 -4 L 4.1875 0 L -0.234375 0 L 8.09375 -18.6875 L 12.359375 -18.6875 L 20.71875 0 L 16.1875 0 Z M 13.171875 -7.296875 L 10.203125 -14.453125 L 7.234375 -7.296875 Z M 13.171875 -7.296875 "/></g></g><g style="fill:#000000;fill-opacity:0.302;"><g transform="translate(137.29786, 239.012268)"><path style="stroke:none" d="M 3.5 0.21875 C 2.769531 0.21875 2.15625 -0.03125 1.65625 -0.53125 C 1.15625 -1.03125 0.90625 -1.65625 0.90625 -2.40625 C 0.90625 -3.164062 1.15625 -3.78125 1.65625 -4.25 C 2.15625 -4.726562 2.769531 -4.96875 3.5 -4.96875 C 4.226562 -4.96875 4.84375 -4.726562 5.34375 -4.25 C 5.84375 -3.78125 6.09375 -3.164062 6.09375 -2.40625 C 6.09375 -1.65625 5.84375 -1.03125 5.34375 -0.53125 C 4.84375 -0.03125 4.226562 0.21875 3.5 0.21875 Z M 3.5 0.21875 "/></g></g><g style="fill:#000000;fill-opacity:0.302;"><g transform="translate(144.2906, 239.012268)"><path style="stroke:none" d="M 6.546875 -15.21875 L 6.546875 -10.28125 L 15.1875 -10.28125 L 15.1875 -6.8125 L 6.546875 -6.8125 L 6.546875 0 L 2.21875 0 L 2.21875 -18.6875 L 16.34375 -18.6875 L 16.34375 -15.21875 Z M 6.546875 -15.21875 "/></g></g><g style="fill:#000000;fill-opacity:0.302;"><g transform="translate(161.078462, 239.012268)"><path style="stroke:none" d="M 3.5 0.21875 C 2.769531 0.21875 2.15625 -0.03125 1.65625 -0.53125 C 1.15625 -1.03125 0.90625 -1.65625 0.90625 -2.40625 C 0.90625 -3.164062 1.15625 -3.78125 1.65625 -4.25 C 2.15625 -4.726562 2.769531 -4.96875 3.5 -4.96875 C 4.226562 -4.96875 4.84375 -4.726562 5.34375 -4.25 C 5.84375 -3.78125 6.09375 -3.164062 6.09375 -2.40625 C 6.09375 -1.65625 5.84375 -1.03125 5.34375 -0.53125 C 4.84375 -0.03125 4.226562 0.21875 3.5 0.21875 Z M 3.5 0.21875 "/></g></g><g style="fill:#000000;fill-opacity:0.302;"><g transform="translate(168.071202, 239.012268)"><path style="stroke:none" d="M 16.6875 -3.46875 L 16.6875 0 L 2.21875 0 L 2.21875 -18.6875 L 16.34375 -18.6875 L 16.34375 -15.21875 L 6.515625 -15.21875 L 6.515625 -11.15625 L 15.1875 -11.15625 L 15.1875 -7.796875 L 6.515625 -7.796875 L 6.515625 -3.46875 Z M 16.6875 -3.46875 "/></g></g><g style="fill:#000000;fill-opacity:0.302;"><g transform="translate(186.247049, 239.012268)"><path style="stroke:none" d="M 3.5 0.21875 C 2.769531 0.21875 2.15625 -0.03125 1.65625 -0.53125 C 1.15625 -1.03125 0.90625 -1.65625 0.90625 -2.40625 C 0.90625 -3.164062 1.15625 -3.78125 1.65625 -4.25 C 2.15625 -4.726562 2.769531 -4.96875 3.5 -4.96875 C 4.226562 -4.96875 4.84375 -4.726562 5.34375 -4.25 C 5.84375 -3.78125 6.09375 -3.164062 6.09375 -2.40625 C 6.09375 -1.65625 5.84375 -1.03125 5.34375 -0.53125 C 4.84375 -0.03125 4.226562 0.21875 3.5 0.21875 Z M 3.5 0.21875 "/></g></g><g style="fill:#000000;fill-opacity:0.302;"><g transform="translate(193.506743, 239.012268)"><path style="stroke:none" d="M 8.359375 0.328125 C 6.878906 0.328125 5.445312 0.128906 4.0625 -0.265625 C 2.6875 -0.671875 1.582031 -1.195312 0.75 -1.84375 L 2.21875 -5.09375 C 3.019531 -4.507812 3.972656 -4.039062 5.078125 -3.6875 C 6.179688 -3.332031 7.285156 -3.15625 8.390625 -3.15625 C 9.617188 -3.15625 10.523438 -3.335938 11.109375 -3.703125 C 11.691406 -4.066406 11.984375 -4.550781 11.984375 -5.15625 C 11.984375 -5.601562 11.8125 -5.972656 11.46875 -6.265625 C 11.125 -6.554688 10.675781 -6.789062 10.125 -6.96875 C 9.582031 -7.144531 8.851562 -7.34375 7.9375 -7.5625 C 6.507812 -7.894531 5.34375 -8.226562 4.4375 -8.5625 C 3.53125 -8.90625 2.75 -9.453125 2.09375 -10.203125 C 1.445312 -10.953125 1.125 -11.945312 1.125 -13.1875 C 1.125 -14.269531 1.414062 -15.253906 2 -16.140625 C 2.59375 -17.023438 3.476562 -17.722656 4.65625 -18.234375 C 5.84375 -18.753906 7.289062 -19.015625 9 -19.015625 C 10.1875 -19.015625 11.347656 -18.867188 12.484375 -18.578125 C 13.628906 -18.296875 14.628906 -17.890625 15.484375 -17.359375 L 14.15625 -14.078125 C 12.425781 -15.054688 10.695312 -15.546875 8.96875 -15.546875 C 7.757812 -15.546875 6.863281 -15.347656 6.28125 -14.953125 C 5.707031 -14.554688 5.421875 -14.039062 5.421875 -13.40625 C 5.421875 -12.757812 5.753906 -12.28125 6.421875 -11.96875 C 7.085938 -11.664062 8.109375 -11.363281 9.484375 -11.0625 C 10.898438 -10.71875 12.0625 -10.375 12.96875 -10.03125 C 13.882812 -9.695312 14.664062 -9.164062 15.3125 -8.4375 C 15.957031 -7.707031 16.28125 -6.71875 16.28125 -5.46875 C 16.28125 -4.40625 15.984375 -3.429688 15.390625 -2.546875 C 14.796875 -1.671875 13.898438 -0.972656 12.703125 -0.453125 C 11.515625 0.0664062 10.066406 0.328125 8.359375 0.328125 Z M 8.359375 0.328125 "/></g></g><g style="fill:#000000;fill-opacity:0.302;"><g transform="translate(211.068797, 239.012268)"><path style="stroke:none" d="M 3.5 0.21875 C 2.769531 0.21875 2.15625 -0.03125 1.65625 -0.53125 C 1.15625 -1.03125 0.90625 -1.65625 0.90625 -2.40625 C 0.90625 -3.164062 1.15625 -3.78125 1.65625 -4.25 C 2.15625 -4.726562 2.769531 -4.96875 3.5 -4.96875 C 4.226562 -4.96875 4.84375 -4.726562 5.34375 -4.25 C 5.84375 -3.78125 6.09375 -3.164062 6.09375 -2.40625 C 6.09375 -1.65625 5.84375 -1.03125 5.34375 -0.53125 C 4.84375 -0.03125 4.226562 0.21875 3.5 0.21875 Z M 3.5 0.21875 "/></g></g><g style="fill:#000000;fill-opacity:0.302;"><g transform="translate(218.061536, 239.012268)"><path style="stroke:none" d="M 14.125 0 L 10.515625 -5.203125 L 6.546875 -5.203125 L 6.546875 0 L 2.21875 0 L 2.21875 -18.6875 L 10.3125 -18.6875 C 11.96875 -18.6875 13.40625 -18.410156 14.625 -17.859375 C 15.84375 -17.304688 16.78125 -16.523438 17.4375 -15.515625 C 18.09375 -14.503906 18.421875 -13.300781 18.421875 -11.90625 C 18.421875 -10.519531 18.085938 -9.320312 17.421875 -8.3125 C 16.753906 -7.3125 15.804688 -6.546875 14.578125 -6.015625 L 18.765625 0 Z M 14.046875 -11.90625 C 14.046875 -12.957031 13.707031 -13.765625 13.03125 -14.328125 C 12.351562 -14.890625 11.363281 -15.171875 10.0625 -15.171875 L 6.546875 -15.171875 L 6.546875 -8.65625 L 10.0625 -8.65625 C 11.363281 -8.65625 12.351562 -8.9375 13.03125 -9.5 C 13.707031 -10.070312 14.046875 -10.875 14.046875 -11.90625 Z M 14.046875 -11.90625 "/></g></g><g style="fill:#000000;fill-opacity:0.302;"><g transform="translate(237.678579, 239.012268)"><path style="stroke:none" d="M 3.5 0.21875 C 2.769531 0.21875 2.15625 -0.03125 1.65625 -0.53125 C 1.15625 -1.03125 0.90625 -1.65625 0.90625 -2.40625 C 0.90625 -3.164062 1.15625 -3.78125 1.65625 -4.25 C 2.15625 -4.726562 2.769531 -4.96875 3.5 -4.96875 C 4.226562 -4.96875 4.84375 -4.726562 5.34375 -4.25 C 5.84375 -3.78125 6.09375 -3.164062 6.09375 -2.40625 C 6.09375 -1.65625 5.84375 -1.03125 5.34375 -0.53125 C 4.84375 -0.03125 4.226562 0.21875 3.5 0.21875 Z M 3.5 0.21875 "/></g></g><g style="fill:#000000;fill-opacity:0.302;"><g transform="translate(244.137399, 239.012268)"><path style="stroke:none" d="M 11.15625 0.328125 C 9.25 0.328125 7.523438 -0.0820312 5.984375 -0.90625 C 4.453125 -1.738281 3.242188 -2.890625 2.359375 -4.359375 C 1.484375 -5.828125 1.046875 -7.488281 1.046875 -9.34375 C 1.046875 -11.195312 1.484375 -12.859375 2.359375 -14.328125 C 3.242188 -15.796875 4.453125 -16.941406 5.984375 -17.765625 C 7.523438 -18.597656 9.257812 -19.015625 11.1875 -19.015625 C 12.8125 -19.015625 14.273438 -18.726562 15.578125 -18.15625 C 16.890625 -17.582031 17.988281 -16.765625 18.875 -15.703125 L 16.109375 -13.140625 C 14.835938 -14.597656 13.269531 -15.328125 11.40625 -15.328125 C 10.25 -15.328125 9.210938 -15.070312 8.296875 -14.5625 C 7.390625 -14.0625 6.679688 -13.351562 6.171875 -12.4375 C 5.671875 -11.53125 5.421875 -10.5 5.421875 -9.34375 C 5.421875 -8.1875 5.671875 -7.15625 6.171875 -6.25 C 6.679688 -5.34375 7.390625 -4.632812 8.296875 -4.125 C 9.210938 -3.613281 10.25 -3.359375 11.40625 -3.359375 C 13.269531 -3.359375 14.835938 -4.097656 16.109375 -5.578125 L 18.875 -3.015625 C 17.988281 -1.929688 16.882812 -1.101562 15.5625 -0.53125 C 14.25 0.0390625 12.78125 0.328125 11.15625 0.328125 Z M 11.15625 0.328125 "/></g></g><g style="fill:#000000;fill-opacity:0.502;"><g transform="translate(114.819198, 237.832321)"><path style="stroke:none" d="M 14.53125 -4 L 5.84375 -4 L 4.1875 0 L -0.234375 0 L 8.09375 -18.6875 L 12.359375 -18.6875 L 20.71875 0 L 16.1875 0 Z M 13.171875 -7.296875 L 10.203125 -14.453125 L 7.234375 -7.296875 Z M 13.171875 -7.296875 "/></g></g><g style="fill:#000000;fill-opacity:0.502;"><g transform="translate(136.117907, 237.832321)"><path style="stroke:none" d="M 3.5 0.21875 C 2.769531 0.21875 2.15625 -0.03125 1.65625 -0.53125 C 1.15625 -1.03125 0.90625 -1.65625 0.90625 -2.40625 C 0.90625 -3.164062 1.15625 -3.78125 1.65625 -4.25 C 2.15625 -4.726562 2.769531 -4.96875 3.5 -4.96875 C 4.226562 -4.96875 4.84375 -4.726562 5.34375 -4.25 C 5.84375 -3.78125 6.09375 -3.164062 6.09375 -2.40625 C 6.09375 -1.65625 5.84375 -1.03125 5.34375 -0.53125 C 4.84375 -0.03125 4.226562 0.21875 3.5 0.21875 Z M 3.5 0.21875 "/></g></g><g style="fill:#000000;fill-opacity:0.502;"><g transform="translate(143.110647, 237.832321)"><path style="stroke:none" d="M 6.546875 -15.21875 L 6.546875 -10.28125 L 15.1875 -10.28125 L 15.1875 -6.8125 L 6.546875 -6.8125 L 6.546875 0 L 2.21875 0 L 2.21875 -18.6875 L 16.34375 -18.6875 L 16.34375 -15.21875 Z M 6.546875 -15.21875 "/></g></g><g style="fill:#000000;fill-opacity:0.502;"><g transform="translate(159.898509, 237.832321)"><path style="stroke:none" d="M 3.5 0.21875 C 2.769531 0.21875 2.15625 -0.03125 1.65625 -0.53125 C 1.15625 -1.03125 0.90625 -1.65625 0.90625 -2.40625 C 0.90625 -3.164062 1.15625 -3.78125 1.65625 -4.25 C 2.15625 -4.726562 2.769531 -4.96875 3.5 -4.96875 C 4.226562 -4.96875 4.84375 -4.726562 5.34375 -4.25 C 5.84375 -3.78125 6.09375 -3.164062 6.09375 -2.40625 C 6.09375 -1.65625 5.84375 -1.03125 5.34375 -0.53125 C 4.84375 -0.03125 4.226562 0.21875 3.5 0.21875 Z M 3.5 0.21875 "/></g></g><g style="fill:#000000;fill-opacity:0.502;"><g transform="translate(166.891249, 237.832321)"><path style="stroke:none" d="M 16.6875 -3.46875 L 16.6875 0 L 2.21875 0 L 2.21875 -18.6875 L 16.34375 -18.6875 L 16.34375 -15.21875 L 6.515625 -15.21875 L 6.515625 -11.15625 L 15.1875 -11.15625 L 15.1875 -7.796875 L 6.515625 -7.796875 L 6.515625 -3.46875 Z M 16.6875 -3.46875 "/></g></g><g style="fill:#000000;fill-opacity:0.502;"><g transform="translate(185.067096, 237.832321)"><path style="stroke:none" d="M 3.5 0.21875 C 2.769531 0.21875 2.15625 -0.03125 1.65625 -0.53125 C 1.15625 -1.03125 0.90625 -1.65625 0.90625 -2.40625 C 0.90625 -3.164062 1.15625 -3.78125 1.65625 -4.25 C 2.15625 -4.726562 2.769531 -4.96875 3.5 -4.96875 C 4.226562 -4.96875 4.84375 -4.726562 5.34375 -4.25 C 5.84375 -3.78125 6.09375 -3.164062 6.09375 -2.40625 C 6.09375 -1.65625 5.84375 -1.03125 5.34375 -0.53125 C 4.84375 -0.03125 4.226562 0.21875 3.5 0.21875 Z M 3.5 0.21875 "/></g></g><g style="fill:#000000;fill-opacity:0.502;"><g transform="translate(192.326791, 237.832321)"><path style="stroke:none" d="M 8.359375 0.328125 C 6.878906 0.328125 5.445312 0.128906 4.0625 -0.265625 C 2.6875 -0.671875 1.582031 -1.195312 0.75 -1.84375 L 2.21875 -5.09375 C 3.019531 -4.507812 3.972656 -4.039062 5.078125 -3.6875 C 6.179688 -3.332031 7.285156 -3.15625 8.390625 -3.15625 C 9.617188 -3.15625 10.523438 -3.335938 11.109375 -3.703125 C 11.691406 -4.066406 11.984375 -4.550781 11.984375 -5.15625 C 11.984375 -5.601562 11.8125 -5.972656 11.46875 -6.265625 C 11.125 -6.554688 10.675781 -6.789062 10.125 -6.96875 C 9.582031 -7.144531 8.851562 -7.34375 7.9375 -7.5625 C 6.507812 -7.894531 5.34375 -8.226562 4.4375 -8.5625 C 3.53125 -8.90625 2.75 -9.453125 2.09375 -10.203125 C 1.445312 -10.953125 1.125 -11.945312 1.125 -13.1875 C 1.125 -14.269531 1.414062 -15.253906 2 -16.140625 C 2.59375 -17.023438 3.476562 -17.722656 4.65625 -18.234375 C 5.84375 -18.753906 7.289062 -19.015625 9 -19.015625 C 10.1875 -19.015625 11.347656 -18.867188 12.484375 -18.578125 C 13.628906 -18.296875 14.628906 -17.890625 15.484375 -17.359375 L 14.15625 -14.078125 C 12.425781 -15.054688 10.695312 -15.546875 8.96875 -15.546875 C 7.757812 -15.546875 6.863281 -15.347656 6.28125 -14.953125 C 5.707031 -14.554688 5.421875 -14.039062 5.421875 -13.40625 C 5.421875 -12.757812 5.753906 -12.28125 6.421875 -11.96875 C 7.085938 -11.664062 8.109375 -11.363281 9.484375 -11.0625 C 10.898438 -10.71875 12.0625 -10.375 12.96875 -10.03125 C 13.882812 -9.695312 14.664062 -9.164062 15.3125 -8.4375 C 15.957031 -7.707031 16.28125 -6.71875 16.28125 -5.46875 C 16.28125 -4.40625 15.984375 -3.429688 15.390625 -2.546875 C 14.796875 -1.671875 13.898438 -0.972656 12.703125 -0.453125 C 11.515625 0.0664062 10.066406 0.328125 8.359375 0.328125 Z M 8.359375 0.328125 "/></g></g><g style="fill:#000000;fill-opacity:0.502;"><g transform="translate(209.888844, 237.832321)"><path style="stroke:none" d="M 3.5 0.21875 C 2.769531 0.21875 2.15625 -0.03125 1.65625 -0.53125 C 1.15625 -1.03125 0.90625 -1.65625 0.90625 -2.40625 C 0.90625 -3.164062 1.15625 -3.78125 1.65625 -4.25 C 2.15625 -4.726562 2.769531 -4.96875 3.5 -4.96875 C 4.226562 -4.96875 4.84375 -4.726562 5.34375 -4.25 C 5.84375 -3.78125 6.09375 -3.164062 6.09375 -2.40625 C 6.09375 -1.65625 5.84375 -1.03125 5.34375 -0.53125 C 4.84375 -0.03125 4.226562 0.21875 3.5 0.21875 Z M 3.5 0.21875 "/></g></g><g style="fill:#000000;fill-opacity:0.502;"><g transform="translate(216.881584, 237.832321)"><path style="stroke:none" d="M 14.125 0 L 10.515625 -5.203125 L 6.546875 -5.203125 L 6.546875 0 L 2.21875 0 L 2.21875 -18.6875 L 10.3125 -18.6875 C 11.96875 -18.6875 13.40625 -18.410156 14.625 -17.859375 C 15.84375 -17.304688 16.78125 -16.523438 17.4375 -15.515625 C 18.09375 -14.503906 18.421875 -13.300781 18.421875 -11.90625 C 18.421875 -10.519531 18.085938 -9.320312 17.421875 -8.3125 C 16.753906 -7.3125 15.804688 -6.546875 14.578125 -6.015625 L 18.765625 0 Z M 14.046875 -11.90625 C 14.046875 -12.957031 13.707031 -13.765625 13.03125 -14.328125 C 12.351562 -14.890625 11.363281 -15.171875 10.0625 -15.171875 L 6.546875 -15.171875 L 6.546875 -8.65625 L 10.0625 -8.65625 C 11.363281 -8.65625 12.351562 -8.9375 13.03125 -9.5 C 13.707031 -10.070312 14.046875 -10.875 14.046875 -11.90625 Z M 14.046875 -11.90625 "/></g></g><g style="fill:#000000;fill-opacity:0.502;"><g transform="translate(236.498627, 237.832321)"><path style="stroke:none" d="M 3.5 0.21875 C 2.769531 0.21875 2.15625 -0.03125 1.65625 -0.53125 C 1.15625 -1.03125 0.90625 -1.65625 0.90625 -2.40625 C 0.90625 -3.164062 1.15625 -3.78125 1.65625 -4.25 C 2.15625 -4.726562 2.769531 -4.96875 3.5 -4.96875 C 4.226562 -4.96875 4.84375 -4.726562 5.34375 -4.25 C 5.84375 -3.78125 6.09375 -3.164062 6.09375 -2.40625 C 6.09375 -1.65625 5.84375 -1.03125 5.34375 -0.53125 C 4.84375 -0.03125 4.226562 0.21875 3.5 0.21875 Z M 3.5 0.21875 "/></g></g><g style="fill:#000000;fill-opacity:0.502;"><g transform="translate(242.957446, 237.832321)"><path style="stroke:none" d="M 11.15625 0.328125 C 9.25 0.328125 7.523438 -0.0820312 5.984375 -0.90625 C 4.453125 -1.738281 3.242188 -2.890625 2.359375 -4.359375 C 1.484375 -5.828125 1.046875 -7.488281 1.046875 -9.34375 C 1.046875 -11.195312 1.484375 -12.859375 2.359375 -14.328125 C 3.242188 -15.796875 4.453125 -16.941406 5.984375 -17.765625 C 7.523438 -18.597656 9.257812 -19.015625 11.1875 -19.015625 C 12.8125 -19.015625 14.273438 -18.726562 15.578125 -18.15625 C 16.890625 -17.582031 17.988281 -16.765625 18.875 -15.703125 L 16.109375 -13.140625 C 14.835938 -14.597656 13.269531 -15.328125 11.40625 -15.328125 C 10.25 -15.328125 9.210938 -15.070312 8.296875 -14.5625 C 7.390625 -14.0625 6.679688 -13.351562 6.171875 -12.4375 C 5.671875 -11.53125 5.421875 -10.5 5.421875 -9.34375 C 5.421875 -8.1875 5.671875 -7.15625 6.171875 -6.25 C 6.679688 -5.34375 7.390625 -4.632812 8.296875 -4.125 C 9.210938 -3.613281 10.25 -3.359375 11.40625 -3.359375 C 13.269531 -3.359375 14.835938 -4.097656 16.109375 -5.578125 L 18.875 -3.015625 C 17.988281 -1.929688 16.882812 -1.101562 15.5625 -0.53125 C 14.25 0.0390625 12.78125 0.328125 11.15625 0.328125 Z M 11.15625 0.328125 "/></g></g><g style="fill:#000000;fill-opacity:1;"><g transform="translate(113.639245, 236.652361)"><path style="stroke:none" d="M 14.53125 -4 L 5.84375 -4 L 4.1875 0 L -0.234375 0 L 8.09375 -18.6875 L 12.359375 -18.6875 L 20.71875 0 L 16.1875 0 Z M 13.171875 -7.296875 L 10.203125 -14.453125 L 7.234375 -7.296875 Z M 13.171875 -7.296875 "/></g></g><g style="fill:#000000;fill-opacity:1;"><g transform="translate(134.937955, 236.652361)"><path style="stroke:none" d="M 3.5 0.21875 C 2.769531 0.21875 2.15625 -0.03125 1.65625 -0.53125 C 1.15625 -1.03125 0.90625 -1.65625 0.90625 -2.40625 C 0.90625 -3.164062 1.15625 -3.78125 1.65625 -4.25 C 2.15625 -4.726562 2.769531 -4.96875 3.5 -4.96875 C 4.226562 -4.96875 4.84375 -4.726562 5.34375 -4.25 C 5.84375 -3.78125 6.09375 -3.164062 6.09375 -2.40625 C 6.09375 -1.65625 5.84375 -1.03125 5.34375 -0.53125 C 4.84375 -0.03125 4.226562 0.21875 3.5 0.21875 Z M 3.5 0.21875 "/></g></g><g style="fill:#000000;fill-opacity:1;"><g transform="translate(141.930694, 236.652361)"><path style="stroke:none" d="M 6.546875 -15.21875 L 6.546875 -10.28125 L 15.1875 -10.28125 L 15.1875 -6.8125 L 6.546875 -6.8125 L 6.546875 0 L 2.21875 0 L 2.21875 -18.6875 L 16.34375 -18.6875 L 16.34375 -15.21875 Z M 6.546875 -15.21875 "/></g></g><g style="fill:#000000;fill-opacity:1;"><g transform="translate(158.718556, 236.652361)"><path style="stroke:none" d="M 3.5 0.21875 C 2.769531 0.21875 2.15625 -0.03125 1.65625 -0.53125 C 1.15625 -1.03125 0.90625 -1.65625 0.90625 -2.40625 C 0.90625 -3.164062 1.15625 -3.78125 1.65625 -4.25 C 2.15625 -4.726562 2.769531 -4.96875 3.5 -4.96875 C 4.226562 -4.96875 4.84375 -4.726562 5.34375 -4.25 C 5.84375 -3.78125 6.09375 -3.164062 6.09375 -2.40625 C 6.09375 -1.65625 5.84375 -1.03125 5.34375 -0.53125 C 4.84375 -0.03125 4.226562 0.21875 3.5 0.21875 Z M 3.5 0.21875 "/></g></g><g style="fill:#000000;fill-opacity:1;"><g transform="translate(165.711296, 236.652361)"><path style="stroke:none" d="M 16.6875 -3.46875 L 16.6875 0 L 2.21875 0 L 2.21875 -18.6875 L 16.34375 -18.6875 L 16.34375 -15.21875 L 6.515625 -15.21875 L 6.515625 -11.15625 L 15.1875 -11.15625 L 15.1875 -7.796875 L 6.515625 -7.796875 L 6.515625 -3.46875 Z M 16.6875 -3.46875 "/></g></g><g style="fill:#000000;fill-opacity:1;"><g transform="translate(183.887143, 236.652361)"><path style="stroke:none" d="M 3.5 0.21875 C 2.769531 0.21875 2.15625 -0.03125 1.65625 -0.53125 C 1.15625 -1.03125 0.90625 -1.65625 0.90625 -2.40625 C 0.90625 -3.164062 1.15625 -3.78125 1.65625 -4.25 C 2.15625 -4.726562 2.769531 -4.96875 3.5 -4.96875 C 4.226562 -4.96875 4.84375 -4.726562 5.34375 -4.25 C 5.84375 -3.78125 6.09375 -3.164062 6.09375 -2.40625 C 6.09375 -1.65625 5.84375 -1.03125 5.34375 -0.53125 C 4.84375 -0.03125 4.226562 0.21875 3.5 0.21875 Z M 3.5 0.21875 "/></g></g><g style="fill:#000000;fill-opacity:1;"><g transform="translate(191.146838, 236.652361)"><path style="stroke:none" d="M 8.359375 0.328125 C 6.878906 0.328125 5.445312 0.128906 4.0625 -0.265625 C 2.6875 -0.671875 1.582031 -1.195312 0.75 -1.84375 L 2.21875 -5.09375 C 3.019531 -4.507812 3.972656 -4.039062 5.078125 -3.6875 C 6.179688 -3.332031 7.285156 -3.15625 8.390625 -3.15625 C 9.617188 -3.15625 10.523438 -3.335938 11.109375 -3.703125 C 11.691406 -4.066406 11.984375 -4.550781 11.984375 -5.15625 C 11.984375 -5.601562 11.8125 -5.972656 11.46875 -6.265625 C 11.125 -6.554688 10.675781 -6.789062 10.125 -6.96875 C 9.582031 -7.144531 8.851562 -7.34375 7.9375 -7.5625 C 6.507812 -7.894531 5.34375 -8.226562 4.4375 -8.5625 C 3.53125 -8.90625 2.75 -9.453125 2.09375 -10.203125 C 1.445312 -10.953125 1.125 -11.945312 1.125 -13.1875 C 1.125 -14.269531 1.414062 -15.253906 2 -16.140625 C 2.59375 -17.023438 3.476562 -17.722656 4.65625 -18.234375 C 5.84375 -18.753906 7.289062 -19.015625 9 -19.015625 C 10.1875 -19.015625 11.347656 -18.867188 12.484375 -18.578125 C 13.628906 -18.296875 14.628906 -17.890625 15.484375 -17.359375 L 14.15625 -14.078125 C 12.425781 -15.054688 10.695312 -15.546875 8.96875 -15.546875 C 7.757812 -15.546875 6.863281 -15.347656 6.28125 -14.953125 C 5.707031 -14.554688 5.421875 -14.039062 5.421875 -13.40625 C 5.421875 -12.757812 5.753906 -12.28125 6.421875 -11.96875 C 7.085938 -11.664062 8.109375 -11.363281 9.484375 -11.0625 C 10.898438 -10.71875 12.0625 -10.375 12.96875 -10.03125 C 13.882812 -9.695312 14.664062 -9.164062 15.3125 -8.4375 C 15.957031 -7.707031 16.28125 -6.71875 16.28125 -5.46875 C 16.28125 -4.40625 15.984375 -3.429688 15.390625 -2.546875 C 14.796875 -1.671875 13.898438 -0.972656 12.703125 -0.453125 C 11.515625 0.0664062 10.066406 0.328125 8.359375 0.328125 Z M 8.359375 0.328125 "/></g></g><g style="fill:#000000;fill-opacity:1;"><g transform="translate(208.708891, 236.652361)"><path style="stroke:none" d="M 3.5 0.21875 C 2.769531 0.21875 2.15625 -0.03125 1.65625 -0.53125 C 1.15625 -1.03125 0.90625 -1.65625 0.90625 -2.40625 C 0.90625 -3.164062 1.15625 -3.78125 1.65625 -4.25 C 2.15625 -4.726562 2.769531 -4.96875 3.5 -4.96875 C 4.226562 -4.96875 4.84375 -4.726562 5.34375 -4.25 C 5.84375 -3.78125 6.09375 -3.164062 6.09375 -2.40625 C 6.09375 -1.65625 5.84375 -1.03125 5.34375 -0.53125 C 4.84375 -0.03125 4.226562 0.21875 3.5 0.21875 Z M 3.5 0.21875 "/></g></g><g style="fill:#000000;fill-opacity:1;"><g transform="translate(215.701631, 236.652361)"><path style="stroke:none" d="M 14.125 0 L 10.515625 -5.203125 L 6.546875 -5.203125 L 6.546875 0 L 2.21875 0 L 2.21875 -18.6875 L 10.3125 -18.6875 C 11.96875 -18.6875 13.40625 -18.410156 14.625 -17.859375 C 15.84375 -17.304688 16.78125 -16.523438 17.4375 -15.515625 C 18.09375 -14.503906 18.421875 -13.300781 18.421875 -11.90625 C 18.421875 -10.519531 18.085938 -9.320312 17.421875 -8.3125 C 16.753906 -7.3125 15.804688 -6.546875 14.578125 -6.015625 L 18.765625 0 Z M 14.046875 -11.90625 C 14.046875 -12.957031 13.707031 -13.765625 13.03125 -14.328125 C 12.351562 -14.890625 11.363281 -15.171875 10.0625 -15.171875 L 6.546875 -15.171875 L 6.546875 -8.65625 L 10.0625 -8.65625 C 11.363281 -8.65625 12.351562 -8.9375 13.03125 -9.5 C 13.707031 -10.070312 14.046875 -10.875 14.046875 -11.90625 Z M 14.046875 -11.90625 "/></g></g><g style="fill:#000000;fill-opacity:1;"><g transform="translate(235.318674, 236.652361)"><path style="stroke:none" d="M 3.5 0.21875 C 2.769531 0.21875 2.15625 -0.03125 1.65625 -0.53125 C 1.15625 -1.03125 0.90625 -1.65625 0.90625 -2.40625 C 0.90625 -3.164062 1.15625 -3.78125 1.65625 -4.25 C 2.15625 -4.726562 2.769531 -4.96875 3.5 -4.96875 C 4.226562 -4.96875 4.84375 -4.726562 5.34375 -4.25 C 5.84375 -3.78125 6.09375 -3.164062 6.09375 -2.40625 C 6.09375 -1.65625 5.84375 -1.03125 5.34375 -0.53125 C 4.84375 -0.03125 4.226562 0.21875 3.5 0.21875 Z M 3.5 0.21875 "/></g></g><g style="fill:#000000;fill-opacity:1;"><g transform="translate(241.777493, 236.652361)"><path style="stroke:none" d="M 11.15625 0.328125 C 9.25 0.328125 7.523438 -0.0820312 5.984375 -0.90625 C 4.453125 -1.738281 3.242188 -2.890625 2.359375 -4.359375 C 1.484375 -5.828125 1.046875 -7.488281 1.046875 -9.34375 C 1.046875 -11.195312 1.484375 -12.859375 2.359375 -14.328125 C 3.242188 -15.796875 4.453125 -16.941406 5.984375 -17.765625 C 7.523438 -18.597656 9.257812 -19.015625 11.1875 -19.015625 C 12.8125 -19.015625 14.273438 -18.726562 15.578125 -18.15625 C 16.890625 -17.582031 17.988281 -16.765625 18.875 -15.703125 L 16.109375 -13.140625 C 14.835938 -14.597656 13.269531 -15.328125 11.40625 -15.328125 C 10.25 -15.328125 9.210938 -15.070312 8.296875 -14.5625 C 7.390625 -14.0625 6.679688 -13.351562 6.171875 -12.4375 C 5.671875 -11.53125 5.421875 -10.5 5.421875 -9.34375 C 5.421875 -8.1875 5.671875 -7.15625 6.171875 -6.25 C 6.679688 -5.34375 7.390625 -4.632812 8.296875 -4.125 C 9.210938 -3.613281 10.25 -3.359375 11.40625 -3.359375 C 13.269531 -3.359375 14.835938 -4.097656 16.109375 -5.578125 L 18.875 -3.015625 C 17.988281 -1.929688 16.882812 -1.101562 15.5625 -0.53125 C 14.25 0.0390625 12.78125 0.328125 11.15625 0.328125 Z M 11.15625 0.328125 "/></g></g><g style="fill:#000000;fill-opacity:1;"><g transform="translate(136.767183, 246.679261)"><path style="stroke:none" d="M 3.046875 -6.421875 C 3.703125 -6.421875 4.257812 -6.300781 4.71875 -6.0625 C 5.1875 -5.832031 5.546875 -5.476562 5.796875 -5 C 6.054688 -4.53125 6.1875 -3.9375 6.1875 -3.21875 C 6.1875 -2.488281 6.054688 -1.882812 5.796875 -1.40625 C 5.546875 -0.9375 5.1875 -0.582031 4.71875 -0.34375 C 4.257812 -0.113281 3.703125 0 3.046875 0 L 0.96875 0 L 0.96875 -6.421875 Z M 2.96875 -0.640625 C 3.507812 -0.640625 3.953125 -0.722656 4.296875 -0.890625 C 4.648438 -1.054688 4.914062 -1.328125 5.09375 -1.703125 C 5.28125 -2.085938 5.375 -2.59375 5.375 -3.21875 C 5.375 -3.84375 5.28125 -4.34375 5.09375 -4.71875 C 4.914062 -5.09375 4.648438 -5.363281 4.296875 -5.53125 C 3.953125 -5.695312 3.507812 -5.78125 2.96875 -5.78125 L 1.734375 -5.78125 L 1.734375 -0.640625 Z M 2.96875 -0.640625 "/></g><g transform="translate(143.596284, 246.679261)"><path style="stroke:none" d="M 4.625 -2.265625 L 1.28125 -2.265625 C 1.300781 -1.671875 1.441406 -1.234375 1.703125 -0.953125 C 1.972656 -0.679688 2.335938 -0.546875 2.796875 -0.546875 C 3.140625 -0.546875 3.414062 -0.609375 3.625 -0.734375 C 3.832031 -0.859375 4 -1.050781 4.125 -1.3125 L 4.21875 -1.3125 L 4.6875 -1.03125 C 4.539062 -0.6875 4.3125 -0.410156 4 -0.203125 C 3.695312 -0.00390625 3.296875 0.09375 2.796875 0.09375 C 2.328125 0.09375 1.921875 0 1.578125 -0.1875 C 1.242188 -0.375 0.984375 -0.65625 0.796875 -1.03125 C 0.617188 -1.40625 0.53125 -1.867188 0.53125 -2.421875 C 0.53125 -2.972656 0.625 -3.4375 0.8125 -3.8125 C 1.007812 -4.1875 1.273438 -4.46875 1.609375 -4.65625 C 1.941406 -4.84375 2.320312 -4.9375 2.75 -4.9375 C 3.363281 -4.9375 3.84375 -4.757812 4.1875 -4.40625 C 4.539062 -4.0625 4.722656 -3.546875 4.734375 -2.859375 C 4.734375 -2.585938 4.726562 -2.40625 4.71875 -2.3125 Z M 4.015625 -2.859375 C 4.003906 -3.367188 3.890625 -3.738281 3.671875 -3.96875 C 3.460938 -4.207031 3.15625 -4.328125 2.75 -4.328125 C 2.320312 -4.328125 1.988281 -4.207031 1.75 -3.96875 C 1.507812 -3.738281 1.363281 -3.367188 1.3125 -2.859375 Z M 4.015625 -2.859375 "/></g><g transform="translate(148.764252, 246.679261)"><path style="stroke:none" d="M 3.28125 -0.765625 L 3.5 -0.25 C 3.382812 -0.132812 3.234375 -0.0507812 3.046875 0 C 2.867188 0.0625 2.671875 0.09375 2.453125 0.09375 C 1.523438 0.09375 1.0625 -0.375 1.0625 -1.3125 L 1.0625 -4.265625 L 0.21875 -4.265625 L 0.21875 -4.859375 L 1.0625 -4.859375 L 1.0625 -5.875 L 1.78125 -6 L 1.78125 -4.859375 L 3.34375 -4.859375 L 3.34375 -4.265625 L 1.78125 -4.265625 L 1.78125 -1.390625 C 1.78125 -0.828125 2.019531 -0.546875 2.5 -0.546875 C 2.769531 -0.546875 3 -0.617188 3.1875 -0.765625 Z M 3.28125 -0.765625 "/></g></g><g style="fill:#000000;fill-opacity:1;"><g transform="translate(152.398529, 246.679261)"><path style="stroke:none" d="M 4.625 -2.265625 L 1.28125 -2.265625 C 1.300781 -1.671875 1.441406 -1.234375 1.703125 -0.953125 C 1.972656 -0.679688 2.335938 -0.546875 2.796875 -0.546875 C 3.140625 -0.546875 3.414062 -0.609375 3.625 -0.734375 C 3.832031 -0.859375 4 -1.050781 4.125 -1.3125 L 4.21875 -1.3125 L 4.6875 -1.03125 C 4.539062 -0.6875 4.3125 -0.410156 4 -0.203125 C 3.695312 -0.00390625 3.296875 0.09375 2.796875 0.09375 C 2.328125 0.09375 1.921875 0 1.578125 -0.1875 C 1.242188 -0.375 0.984375 -0.65625 0.796875 -1.03125 C 0.617188 -1.40625 0.53125 -1.867188 0.53125 -2.421875 C 0.53125 -2.972656 0.625 -3.4375 0.8125 -3.8125 C 1.007812 -4.1875 1.273438 -4.46875 1.609375 -4.65625 C 1.941406 -4.84375 2.320312 -4.9375 2.75 -4.9375 C 3.363281 -4.9375 3.84375 -4.757812 4.1875 -4.40625 C 4.539062 -4.0625 4.722656 -3.546875 4.734375 -2.859375 C 4.734375 -2.585938 4.726562 -2.40625 4.71875 -2.3125 Z M 4.015625 -2.859375 C 4.003906 -3.367188 3.890625 -3.738281 3.671875 -3.96875 C 3.460938 -4.207031 3.15625 -4.328125 2.75 -4.328125 C 2.320312 -4.328125 1.988281 -4.207031 1.75 -3.96875 C 1.507812 -3.738281 1.363281 -3.367188 1.3125 -2.859375 Z M 4.015625 -2.859375 "/></g><g transform="translate(157.566498, 246.679261)"><path style="stroke:none" d="M 2.78125 0.09375 C 2.351562 0.09375 1.96875 -0.00390625 1.625 -0.203125 C 1.289062 -0.398438 1.023438 -0.6875 0.828125 -1.0625 C 0.628906 -1.4375 0.53125 -1.890625 0.53125 -2.421875 C 0.53125 -2.953125 0.628906 -3.40625 0.828125 -3.78125 C 1.023438 -4.164062 1.289062 -4.453125 1.625 -4.640625 C 1.96875 -4.835938 2.351562 -4.9375 2.78125 -4.9375 C 3.289062 -4.9375 3.695312 -4.835938 4 -4.640625 C 4.300781 -4.453125 4.519531 -4.195312 4.65625 -3.875 L 4.171875 -3.53125 L 4.09375 -3.53125 C 3.957031 -3.789062 3.785156 -3.984375 3.578125 -4.109375 C 3.367188 -4.234375 3.101562 -4.296875 2.78125 -4.296875 C 2.476562 -4.296875 2.210938 -4.222656 1.984375 -4.078125 C 1.765625 -3.941406 1.59375 -3.734375 1.46875 -3.453125 C 1.34375 -3.171875 1.28125 -2.828125 1.28125 -2.421875 C 1.28125 -2.015625 1.34375 -1.671875 1.46875 -1.390625 C 1.59375 -1.109375 1.765625 -0.894531 1.984375 -0.75 C 2.210938 -0.613281 2.476562 -0.546875 2.78125 -0.546875 C 3.113281 -0.546875 3.390625 -0.617188 3.609375 -0.765625 C 3.835938 -0.921875 4.015625 -1.164062 4.140625 -1.5 L 4.234375 -1.5 L 4.703125 -1.21875 C 4.578125 -0.8125 4.351562 -0.488281 4.03125 -0.25 C 3.707031 -0.0195312 3.289062 0.09375 2.78125 0.09375 Z M 2.78125 0.09375 "/></g><g transform="translate(162.56308, 246.679261)"><path style="stroke:none" d="M 3.28125 -0.765625 L 3.5 -0.25 C 3.382812 -0.132812 3.234375 -0.0507812 3.046875 0 C 2.867188 0.0625 2.671875 0.09375 2.453125 0.09375 C 1.523438 0.09375 1.0625 -0.375 1.0625 -1.3125 L 1.0625 -4.265625 L 0.21875 -4.265625 L 0.21875 -4.859375 L 1.0625 -4.859375 L 1.0625 -5.875 L 1.78125 -6 L 1.78125 -4.859375 L 3.34375 -4.859375 L 3.34375 -4.265625 L 1.78125 -4.265625 L 1.78125 -1.390625 C 1.78125 -0.828125 2.019531 -0.546875 2.5 -0.546875 C 2.769531 -0.546875 3 -0.617188 3.1875 -0.765625 Z M 3.28125 -0.765625 "/></g></g><g style="fill:#000000;fill-opacity:1;"><g transform="translate(166.491791, 246.679261)"><path style="stroke:none" d="M 1.1875 0.046875 C 1.019531 0.046875 0.882812 0 0.78125 -0.09375 C 0.6875 -0.1875 0.640625 -0.3125 0.640625 -0.46875 C 0.640625 -0.625 0.6875 -0.75 0.78125 -0.84375 C 0.882812 -0.945312 1.019531 -1 1.1875 -1 C 1.351562 -1 1.484375 -0.953125 1.578125 -0.859375 C 1.679688 -0.765625 1.734375 -0.640625 1.734375 -0.484375 C 1.734375 -0.328125 1.679688 -0.195312 1.578125 -0.09375 C 1.484375 0 1.351562 0.046875 1.1875 0.046875 Z M 1.1875 0.046875 "/></g><g transform="translate(168.860443, 246.679261)"><path style="stroke:none" d=""/></g><g transform="translate(171.066497, 246.679261)"><path style="stroke:none" d="M 1.734375 -6.421875 L 1.734375 -0.625 L 4.828125 -0.625 L 4.828125 0 L 0.96875 0 L 0.96875 -6.421875 Z M 1.734375 -6.421875 "/></g><g transform="translate(176.159759, 246.679261)"><path style="stroke:none" d="M 2.78125 0.09375 C 2.320312 0.09375 1.921875 0 1.578125 -0.1875 C 1.242188 -0.382812 0.984375 -0.671875 0.796875 -1.046875 C 0.617188 -1.429688 0.53125 -1.890625 0.53125 -2.421875 C 0.53125 -2.953125 0.617188 -3.40625 0.796875 -3.78125 C 0.984375 -4.164062 1.242188 -4.453125 1.578125 -4.640625 C 1.921875 -4.835938 2.320312 -4.9375 2.78125 -4.9375 C 3.238281 -4.9375 3.632812 -4.835938 3.96875 -4.640625 C 4.3125 -4.453125 4.570312 -4.164062 4.75 -3.78125 C 4.9375 -3.40625 5.03125 -2.953125 5.03125 -2.421875 C 5.03125 -1.890625 4.9375 -1.429688 4.75 -1.046875 C 4.570312 -0.671875 4.3125 -0.382812 3.96875 -0.1875 C 3.632812 0 3.238281 0.09375 2.78125 0.09375 Z M 2.78125 -0.546875 C 3.257812 -0.546875 3.628906 -0.695312 3.890625 -1 C 4.148438 -1.3125 4.28125 -1.785156 4.28125 -2.421875 C 4.28125 -3.066406 4.148438 -3.539062 3.890625 -3.84375 C 3.628906 -4.144531 3.257812 -4.296875 2.78125 -4.296875 C 2.300781 -4.296875 1.929688 -4.140625 1.671875 -3.828125 C 1.410156 -3.523438 1.28125 -3.054688 1.28125 -2.421875 C 1.28125 -1.785156 1.410156 -1.3125 1.671875 -1 C 1.929688 -0.695312 2.300781 -0.546875 2.78125 -0.546875 Z M 2.78125 -0.546875 "/></g><g transform="translate(181.723235, 246.679261)"><path style="stroke:none" d="M 2.78125 0.09375 C 2.351562 0.09375 1.96875 -0.00390625 1.625 -0.203125 C 1.289062 -0.398438 1.023438 -0.6875 0.828125 -1.0625 C 0.628906 -1.4375 0.53125 -1.890625 0.53125 -2.421875 C 0.53125 -2.953125 0.628906 -3.40625 0.828125 -3.78125 C 1.023438 -4.164062 1.289062 -4.453125 1.625 -4.640625 C 1.96875 -4.835938 2.351562 -4.9375 2.78125 -4.9375 C 3.289062 -4.9375 3.695312 -4.835938 4 -4.640625 C 4.300781 -4.453125 4.519531 -4.195312 4.65625 -3.875 L 4.171875 -3.53125 L 4.09375 -3.53125 C 3.957031 -3.789062 3.785156 -3.984375 3.578125 -4.109375 C 3.367188 -4.234375 3.101562 -4.296875 2.78125 -4.296875 C 2.476562 -4.296875 2.210938 -4.222656 1.984375 -4.078125 C 1.765625 -3.941406 1.59375 -3.734375 1.46875 -3.453125 C 1.34375 -3.171875 1.28125 -2.828125 1.28125 -2.421875 C 1.28125 -2.015625 1.34375 -1.671875 1.46875 -1.390625 C 1.59375 -1.109375 1.765625 -0.894531 1.984375 -0.75 C 2.210938 -0.613281 2.476562 -0.546875 2.78125 -0.546875 C 3.113281 -0.546875 3.390625 -0.617188 3.609375 -0.765625 C 3.835938 -0.921875 4.015625 -1.164062 4.140625 -1.5 L 4.234375 -1.5 L 4.703125 -1.21875 C 4.578125 -0.8125 4.351562 -0.488281 4.03125 -0.25 C 3.707031 -0.0195312 3.289062 0.09375 2.78125 0.09375 Z M 2.78125 0.09375 "/></g><g transform="translate(186.719816, 246.679261)"><path style="stroke:none" d="M 2 0.09375 C 1.519531 0.09375 1.144531 -0.03125 0.875 -0.28125 C 0.613281 -0.53125 0.484375 -0.882812 0.484375 -1.34375 C 0.484375 -1.632812 0.539062 -1.878906 0.65625 -2.078125 C 0.769531 -2.273438 0.953125 -2.4375 1.203125 -2.5625 C 1.453125 -2.6875 1.78125 -2.78125 2.1875 -2.84375 C 2.539062 -2.90625 2.804688 -2.972656 2.984375 -3.046875 C 3.171875 -3.117188 3.296875 -3.195312 3.359375 -3.28125 C 3.421875 -3.375 3.453125 -3.492188 3.453125 -3.640625 C 3.453125 -3.859375 3.375 -4.023438 3.21875 -4.140625 C 3.070312 -4.253906 2.832031 -4.3125 2.5 -4.3125 C 2.1875 -4.3125 1.914062 -4.25 1.6875 -4.125 C 1.46875 -4.007812 1.265625 -3.832031 1.078125 -3.59375 L 0.984375 -3.59375 L 0.640625 -4.09375 C 0.835938 -4.351562 1.09375 -4.554688 1.40625 -4.703125 C 1.726562 -4.859375 2.09375 -4.9375 2.5 -4.9375 C 3.070312 -4.9375 3.492188 -4.8125 3.765625 -4.5625 C 4.035156 -4.3125 4.171875 -3.96875 4.171875 -3.53125 L 4.171875 -0.953125 C 4.171875 -0.679688 4.285156 -0.546875 4.515625 -0.546875 C 4.585938 -0.546875 4.660156 -0.5625 4.734375 -0.59375 L 4.796875 -0.578125 L 4.875 -0.078125 C 4.820312 -0.0351562 4.75 -0.0078125 4.65625 0 C 4.570312 0.0195312 4.488281 0.03125 4.40625 0.03125 C 4.132812 0.03125 3.929688 -0.0234375 3.796875 -0.140625 C 3.660156 -0.253906 3.570312 -0.425781 3.53125 -0.65625 L 3.4375 -0.671875 C 3.300781 -0.410156 3.113281 -0.21875 2.875 -0.09375 C 2.644531 0.03125 2.351562 0.09375 2 0.09375 Z M 2.15625 -0.484375 C 2.425781 -0.484375 2.660156 -0.546875 2.859375 -0.671875 C 3.054688 -0.796875 3.207031 -0.96875 3.3125 -1.1875 C 3.414062 -1.414062 3.46875 -1.675781 3.46875 -1.96875 L 3.46875 -2.59375 L 3.390625 -2.609375 C 3.273438 -2.523438 3.140625 -2.457031 2.984375 -2.40625 C 2.835938 -2.363281 2.625 -2.320312 2.34375 -2.28125 C 2.0625 -2.238281 1.835938 -2.175781 1.671875 -2.09375 C 1.503906 -2.019531 1.382812 -1.921875 1.3125 -1.796875 C 1.25 -1.679688 1.21875 -1.53125 1.21875 -1.34375 C 1.21875 -1.0625 1.300781 -0.847656 1.46875 -0.703125 C 1.632812 -0.554688 1.863281 -0.484375 2.15625 -0.484375 Z M 2.15625 -0.484375 "/></g></g><g style="fill:#000000;fill-opacity:1;"><g transform="translate(191.676847, 246.679261)"><path style="stroke:none" d="M 3.28125 -0.765625 L 3.5 -0.25 C 3.382812 -0.132812 3.234375 -0.0507812 3.046875 0 C 2.867188 0.0625 2.671875 0.09375 2.453125 0.09375 C 1.523438 0.09375 1.0625 -0.375 1.0625 -1.3125 L 1.0625 -4.265625 L 0.21875 -4.265625 L 0.21875 -4.859375 L 1.0625 -4.859375 L 1.0625 -5.875 L 1.78125 -6 L 1.78125 -4.859375 L 3.34375 -4.859375 L 3.34375 -4.265625 L 1.78125 -4.265625 L 1.78125 -1.390625 C 1.78125 -0.828125 2.019531 -0.546875 2.5 -0.546875 C 2.769531 -0.546875 3 -0.617188 3.1875 -0.765625 Z M 3.28125 -0.765625 "/></g></g><g style="fill:#000000;fill-opacity:1;"><g transform="translate(195.311124, 246.679261)"><path style="stroke:none" d="M 4.625 -2.265625 L 1.28125 -2.265625 C 1.300781 -1.671875 1.441406 -1.234375 1.703125 -0.953125 C 1.972656 -0.679688 2.335938 -0.546875 2.796875 -0.546875 C 3.140625 -0.546875 3.414062 -0.609375 3.625 -0.734375 C 3.832031 -0.859375 4 -1.050781 4.125 -1.3125 L 4.21875 -1.3125 L 4.6875 -1.03125 C 4.539062 -0.6875 4.3125 -0.410156 4 -0.203125 C 3.695312 -0.00390625 3.296875 0.09375 2.796875 0.09375 C 2.328125 0.09375 1.921875 0 1.578125 -0.1875 C 1.242188 -0.375 0.984375 -0.65625 0.796875 -1.03125 C 0.617188 -1.40625 0.53125 -1.867188 0.53125 -2.421875 C 0.53125 -2.972656 0.625 -3.4375 0.8125 -3.8125 C 1.007812 -4.1875 1.273438 -4.46875 1.609375 -4.65625 C 1.941406 -4.84375 2.320312 -4.9375 2.75 -4.9375 C 3.363281 -4.9375 3.84375 -4.757812 4.1875 -4.40625 C 4.539062 -4.0625 4.722656 -3.546875 4.734375 -2.859375 C 4.734375 -2.585938 4.726562 -2.40625 4.71875 -2.3125 Z M 4.015625 -2.859375 C 4.003906 -3.367188 3.890625 -3.738281 3.671875 -3.96875 C 3.460938 -4.207031 3.15625 -4.328125 2.75 -4.328125 C 2.320312 -4.328125 1.988281 -4.207031 1.75 -3.96875 C 1.507812 -3.738281 1.363281 -3.367188 1.3125 -2.859375 Z M 4.015625 -2.859375 "/></g></g><g style="fill:#000000;fill-opacity:1;"><g transform="translate(200.312101, 246.679261)"><path style="stroke:none" d="M 1.1875 0.046875 C 1.019531 0.046875 0.882812 0 0.78125 -0.09375 C 0.6875 -0.1875 0.640625 -0.3125 0.640625 -0.46875 C 0.640625 -0.625 0.6875 -0.75 0.78125 -0.84375 C 0.882812 -0.945312 1.019531 -1 1.1875 -1 C 1.351562 -1 1.484375 -0.953125 1.578125 -0.859375 C 1.679688 -0.765625 1.734375 -0.640625 1.734375 -0.484375 C 1.734375 -0.328125 1.679688 -0.195312 1.578125 -0.09375 C 1.484375 0 1.351562 0.046875 1.1875 0.046875 Z M 1.1875 0.046875 "/></g><g transform="translate(202.680753, 246.679261)"><path style="stroke:none" d=""/></g><g transform="translate(204.886807, 246.679261)"><path style="stroke:none" d="M 0.96875 0 L 0.96875 -6.421875 L 3.3125 -6.421875 C 3.738281 -6.421875 4.097656 -6.347656 4.390625 -6.203125 C 4.679688 -6.066406 4.898438 -5.867188 5.046875 -5.609375 C 5.191406 -5.347656 5.265625 -5.039062 5.265625 -4.6875 C 5.265625 -4.289062 5.164062 -3.960938 4.96875 -3.703125 C 4.769531 -3.441406 4.457031 -3.25 4.03125 -3.125 L 4.03125 -3.03125 C 4.238281 -2.945312 4.410156 -2.816406 4.546875 -2.640625 C 4.679688 -2.460938 4.800781 -2.203125 4.90625 -1.859375 L 5.5 0 L 4.734375 0 L 4.09375 -1.96875 C 4.007812 -2.195312 3.914062 -2.375 3.8125 -2.5 C 3.71875 -2.632812 3.59375 -2.734375 3.4375 -2.796875 C 3.289062 -2.859375 3.097656 -2.890625 2.859375 -2.890625 L 1.734375 -2.890625 L 1.734375 0 Z M 3.28125 -3.53125 C 3.6875 -3.53125 3.988281 -3.617188 4.1875 -3.796875 C 4.382812 -3.984375 4.484375 -4.269531 4.484375 -4.65625 C 4.484375 -5.03125 4.382812 -5.3125 4.1875 -5.5 C 3.988281 -5.6875 3.6875 -5.78125 3.28125 -5.78125 L 1.734375 -5.78125 L 1.734375 -3.53125 Z M 3.28125 -3.53125 "/></g></g><g style="fill:#000000;fill-opacity:1;"><g transform="translate(210.709561, 246.679261)"><path style="stroke:none" d="M 4.625 -2.265625 L 1.28125 -2.265625 C 1.300781 -1.671875 1.441406 -1.234375 1.703125 -0.953125 C 1.972656 -0.679688 2.335938 -0.546875 2.796875 -0.546875 C 3.140625 -0.546875 3.414062 -0.609375 3.625 -0.734375 C 3.832031 -0.859375 4 -1.050781 4.125 -1.3125 L 4.21875 -1.3125 L 4.6875 -1.03125 C 4.539062 -0.6875 4.3125 -0.410156 4 -0.203125 C 3.695312 -0.00390625 3.296875 0.09375 2.796875 0.09375 C 2.328125 0.09375 1.921875 0 1.578125 -0.1875 C 1.242188 -0.375 0.984375 -0.65625 0.796875 -1.03125 C 0.617188 -1.40625 0.53125 -1.867188 0.53125 -2.421875 C 0.53125 -2.972656 0.625 -3.4375 0.8125 -3.8125 C 1.007812 -4.1875 1.273438 -4.46875 1.609375 -4.65625 C 1.941406 -4.84375 2.320312 -4.9375 2.75 -4.9375 C 3.363281 -4.9375 3.84375 -4.757812 4.1875 -4.40625 C 4.539062 -4.0625 4.722656 -3.546875 4.734375 -2.859375 C 4.734375 -2.585938 4.726562 -2.40625 4.71875 -2.3125 Z M 4.015625 -2.859375 C 4.003906 -3.367188 3.890625 -3.738281 3.671875 -3.96875 C 3.460938 -4.207031 3.15625 -4.328125 2.75 -4.328125 C 2.320312 -4.328125 1.988281 -4.207031 1.75 -3.96875 C 1.507812 -3.738281 1.363281 -3.367188 1.3125 -2.859375 Z M 4.015625 -2.859375 "/></g><g transform="translate(215.877529, 246.679261)"><path style="stroke:none" d="M 2.203125 0.09375 C 1.898438 0.09375 1.617188 0.0507812 1.359375 -0.03125 C 1.097656 -0.113281 0.878906 -0.222656 0.703125 -0.359375 C 0.523438 -0.503906 0.398438 -0.660156 0.328125 -0.828125 L 0.75 -1.28125 L 0.84375 -1.28125 C 1 -1.039062 1.1875 -0.859375 1.40625 -0.734375 C 1.632812 -0.609375 1.898438 -0.546875 2.203125 -0.546875 C 2.566406 -0.546875 2.84375 -0.613281 3.03125 -0.75 C 3.21875 -0.894531 3.3125 -1.09375 3.3125 -1.34375 C 3.3125 -1.53125 3.253906 -1.6875 3.140625 -1.8125 C 3.023438 -1.9375 2.84375 -2.03125 2.59375 -2.09375 L 1.765625 -2.296875 C 1.328125 -2.398438 1.007812 -2.566406 0.8125 -2.796875 C 0.613281 -3.023438 0.515625 -3.304688 0.515625 -3.640625 C 0.515625 -3.898438 0.582031 -4.128906 0.71875 -4.328125 C 0.851562 -4.523438 1.046875 -4.675781 1.296875 -4.78125 C 1.546875 -4.882812 1.847656 -4.9375 2.203125 -4.9375 C 2.648438 -4.9375 3 -4.875 3.25 -4.75 C 3.507812 -4.625 3.710938 -4.453125 3.859375 -4.234375 L 3.453125 -3.84375 L 3.359375 -3.84375 C 3.203125 -4.019531 3.03125 -4.144531 2.84375 -4.21875 C 2.664062 -4.300781 2.453125 -4.34375 2.203125 -4.34375 C 1.878906 -4.34375 1.632812 -4.285156 1.46875 -4.171875 C 1.300781 -4.054688 1.21875 -3.890625 1.21875 -3.671875 C 1.21875 -3.472656 1.273438 -3.3125 1.390625 -3.1875 C 1.515625 -3.070312 1.722656 -2.976562 2.015625 -2.90625 L 2.828125 -2.71875 C 3.242188 -2.613281 3.546875 -2.445312 3.734375 -2.21875 C 3.921875 -1.988281 4.015625 -1.695312 4.015625 -1.34375 C 4.015625 -1.0625 3.945312 -0.8125 3.8125 -0.59375 C 3.675781 -0.375 3.472656 -0.203125 3.203125 -0.078125 C 2.929688 0.0351562 2.597656 0.09375 2.203125 0.09375 Z M 2.203125 0.09375 "/></g><g transform="translate(220.359951, 246.679261)"><path style="stroke:none" d="M 2.78125 0.09375 C 2.351562 0.09375 1.96875 -0.00390625 1.625 -0.203125 C 1.289062 -0.398438 1.023438 -0.6875 0.828125 -1.0625 C 0.628906 -1.4375 0.53125 -1.890625 0.53125 -2.421875 C 0.53125 -2.953125 0.628906 -3.40625 0.828125 -3.78125 C 1.023438 -4.164062 1.289062 -4.453125 1.625 -4.640625 C 1.96875 -4.835938 2.351562 -4.9375 2.78125 -4.9375 C 3.289062 -4.9375 3.695312 -4.835938 4 -4.640625 C 4.300781 -4.453125 4.519531 -4.195312 4.65625 -3.875 L 4.171875 -3.53125 L 4.09375 -3.53125 C 3.957031 -3.789062 3.785156 -3.984375 3.578125 -4.109375 C 3.367188 -4.234375 3.101562 -4.296875 2.78125 -4.296875 C 2.476562 -4.296875 2.210938 -4.222656 1.984375 -4.078125 C 1.765625 -3.941406 1.59375 -3.734375 1.46875 -3.453125 C 1.34375 -3.171875 1.28125 -2.828125 1.28125 -2.421875 C 1.28125 -2.015625 1.34375 -1.671875 1.46875 -1.390625 C 1.59375 -1.109375 1.765625 -0.894531 1.984375 -0.75 C 2.210938 -0.613281 2.476562 -0.546875 2.78125 -0.546875 C 3.113281 -0.546875 3.390625 -0.617188 3.609375 -0.765625 C 3.835938 -0.921875 4.015625 -1.164062 4.140625 -1.5 L 4.234375 -1.5 L 4.703125 -1.21875 C 4.578125 -0.8125 4.351562 -0.488281 4.03125 -0.25 C 3.707031 -0.0195312 3.289062 0.09375 2.78125 0.09375 Z M 2.78125 0.09375 "/></g><g transform="translate(225.356533, 246.679261)"><path style="stroke:none" d="M 2.390625 0.09375 C 1.847656 0.09375 1.441406 -0.0507812 1.171875 -0.34375 C 0.898438 -0.632812 0.765625 -1.0625 0.765625 -1.625 L 0.765625 -4.84375 L 1.484375 -4.84375 L 1.484375 -1.640625 C 1.484375 -0.898438 1.828125 -0.53125 2.515625 -0.53125 C 2.960938 -0.53125 3.3125 -0.671875 3.5625 -0.953125 C 3.820312 -1.242188 3.953125 -1.710938 3.953125 -2.359375 L 3.953125 -4.84375 L 4.65625 -4.84375 L 4.65625 0 L 3.984375 0 L 3.984375 -0.765625 L 3.890625 -0.78125 C 3.722656 -0.488281 3.519531 -0.269531 3.28125 -0.125 C 3.050781 0.0195312 2.753906 0.09375 2.390625 0.09375 Z M 2.390625 0.09375 "/></g><g transform="translate(230.86288, 246.679261)"><path style="stroke:none" d="M 4.625 -2.265625 L 1.28125 -2.265625 C 1.300781 -1.671875 1.441406 -1.234375 1.703125 -0.953125 C 1.972656 -0.679688 2.335938 -0.546875 2.796875 -0.546875 C 3.140625 -0.546875 3.414062 -0.609375 3.625 -0.734375 C 3.832031 -0.859375 4 -1.050781 4.125 -1.3125 L 4.21875 -1.3125 L 4.6875 -1.03125 C 4.539062 -0.6875 4.3125 -0.410156 4 -0.203125 C 3.695312 -0.00390625 3.296875 0.09375 2.796875 0.09375 C 2.328125 0.09375 1.921875 0 1.578125 -0.1875 C 1.242188 -0.375 0.984375 -0.65625 0.796875 -1.03125 C 0.617188 -1.40625 0.53125 -1.867188 0.53125 -2.421875 C 0.53125 -2.972656 0.625 -3.4375 0.8125 -3.8125 C 1.007812 -4.1875 1.273438 -4.46875 1.609375 -4.65625 C 1.941406 -4.84375 2.320312 -4.9375 2.75 -4.9375 C 3.363281 -4.9375 3.84375 -4.757812 4.1875 -4.40625 C 4.539062 -4.0625 4.722656 -3.546875 4.734375 -2.859375 C 4.734375 -2.585938 4.726562 -2.40625 4.71875 -2.3125 Z M 4.015625 -2.859375 C 4.003906 -3.367188 3.890625 -3.738281 3.671875 -3.96875 C 3.460938 -4.207031 3.15625 -4.328125 2.75 -4.328125 C 2.320312 -4.328125 1.988281 -4.207031 1.75 -3.96875 C 1.507812 -3.738281 1.363281 -3.367188 1.3125 -2.859375 Z M 4.015625 -2.859375 "/></g></g><g style="fill:#000000;fill-opacity:1;"><g transform="translate(235.863857, 246.679261)"><path style="stroke:none" d="M 1.1875 0.046875 C 1.019531 0.046875 0.882812 0 0.78125 -0.09375 C 0.6875 -0.1875 0.640625 -0.3125 0.640625 -0.46875 C 0.640625 -0.625 0.6875 -0.75 0.78125 -0.84375 C 0.882812 -0.945312 1.019531 -1 1.1875 -1 C 1.351562 -1 1.484375 -0.953125 1.578125 -0.859375 C 1.679688 -0.765625 1.734375 -0.640625 1.734375 -0.484375 C 1.734375 -0.328125 1.679688 -0.195312 1.578125 -0.09375 C 1.484375 0 1.351562 0.046875 1.1875 0.046875 Z M 1.1875 0.046875 "/></g></g></g></svg>